<svg xmlns="http://www.w3.org/2000/svg" viewBox="0 0 453.95 79.97">
    <defs>
        <style>.cls-1{fill:#231815;}</style>
    </defs>
    <title>资源 2</title>
    <g id="图层_2" data-name="图层 2">
        <g id="图层_1-2" data-name="图层 1">
            <path class="cls-1"
                  d="M359.92,25.93a27,27,0,0,0,0,54,6.48,6.48,0,0,0,0-13,14.06,14.06,0,1,1,12.47-20.54H359.92a6.48,6.48,0,1,0,0,13h20.61A6.48,6.48,0,0,0,386.94,53h0A27,27,0,0,0,359.92,25.93Z"/>
            <path class="cls-1"
                  d="M292.91,25.93a27,27,0,0,0-20.54,9.48A27,27,0,0,0,224.8,53V73.43h0s0,0,0,.06a6.48,6.48,0,1,0,13,0s0,0,0-.06h0V53h0a14.06,14.06,0,1,1,28.12,0V73.43h0s0,0,0,.06a6.48,6.48,0,1,0,13,0s0,0,0-.06h0V53A14.06,14.06,0,0,1,307,53V73.43h0s0,0,0,.06a6.48,6.48,0,1,0,13,0s0,0,0-.06h0V53A27,27,0,0,0,292.91,25.93Z"/>
            <path class="cls-1"
                  d="M94,25.93A27,27,0,0,0,67,53V73.43h0s0,0,0,.06a6.48,6.48,0,1,0,13,0s0,0,0-.06h0V53a14.06,14.06,0,0,1,28.12,0V73.43h0s0,0,0,.06a6.48,6.48,0,1,0,13,0s0,0,0-.06h0V53A27,27,0,0,0,94,25.93Z"/>
            <path class="cls-1"
                  d="M140.52,25.93A6.48,6.48,0,0,0,134,32.41c0,.11,0,.22,0,.33h0v40.7h0s0,0,0,.06a6.48,6.48,0,1,0,13,0s0,0,0-.06h0V32.74h0c0-.11,0-.22,0-.33A6.48,6.48,0,0,0,140.52,25.93Z"/>
            <circle class="cls-1" cx="140.52" cy="6.48" r="6.48"/>
            <path class="cls-1"
                  d="M205.35,25.93a6.48,6.48,0,0,0-6.48,6.48c0,.11,0,.22,0,.33h0v40.7h0s0,0,0,.06a6.48,6.48,0,1,0,13,0s0,0,0-.06h0V32.74h0c0-.11,0-.22,0-.33A6.48,6.48,0,0,0,205.35,25.93Z"/>
            <circle class="cls-1" cx="205.35" cy="6.48" r="6.48"/>
            <path class="cls-1"
                  d="M173,38.89h6.45a6.48,6.48,0,1,0,0-13h-6.48V19.42h0a6.48,6.48,0,0,0-13,0h0v54h0s0,0,0,.06a6.44,6.44,0,0,0,7.31,6.42h12.13a6.48,6.48,0,0,0,0-13h-6.48V38.89Z"/>
            <path class="cls-1"
                  d="M47.57,25.93a6.48,6.48,0,0,0-6.48,6.48s0,0,0,.06h0V53A14.06,14.06,0,0,1,13,53V32.47h0s0,0,0-.06a6.48,6.48,0,1,0-13,0s0,0,0,.06H0V53a27,27,0,1,0,54,0V32.47h0s0,0,0-.06A6.48,6.48,0,0,0,47.57,25.93Z"/>
            <path class="cls-1"
                  d="M447.47,46.47h-33a14.05,14.05,0,0,1,12.47-7.58,6.48,6.48,0,1,0,0-13,27,27,0,0,0-27,27,6.48,6.48,0,0,0,6.48,6.48h33A14.05,14.05,0,0,1,426.92,67a6.48,6.48,0,0,0,0,13,27,27,0,0,0,27-27A6.48,6.48,0,0,0,447.47,46.47Z"/>
        </g>
    </g>
</svg>