<svg xmlns:xlink="http://www.w3.org/1999/xlink" xmlns="http://www.w3.org/2000/svg" viewBox="0 0 560.48 296.72">
    <defs>
        <style>
            .cls-1{isolation:isolate;}.cls-2{fill:#231f20;}.cls-3{fill:#fff;}.cls-3,.cls-4,.cls-5,.cls-6,.cls-7,.cls-9{stroke:#fff;stroke-miterlimit:10;stroke-width:2.56px;}.cls-4{fill:#6d6e70;}.cls-5{fill:#929497;}.cls-6{fill:#d0d2d3;}.cls-7{fill:#f1f1f2;}.cls-8{mix-blend-mode:overlay;fill:url(#linear-gradient);}.cls-9{fill:#404041;}
        </style>
        <linearGradient id="linear-gradient" x1="214.23" y1="233.51" x2="174.87" y2="486.8"
                        gradientTransform="translate(-104 -210.01) rotate(1.31)" gradientUnits="userSpaceOnUse">
            <stop offset="0" stop-color="#5cc25e"/>
            <stop offset="1" stop-color="#006e7f"/>
        </linearGradient>
    </defs>
    <title>kyber.network_logo-2</title>
    <g class="cls-1">
        <g id="Layer_1" data-name="Layer 1">
            <path class="cls-2"
                  d="M422.92,287a2.46,2.46,0,0,1-.71,1.73,2.23,2.23,0,0,1-1.68.75,3,3,0,0,1-1.86-.8l-24.11-20.56v18.61a2.67,2.67,0,0,1-.75,2,2.7,2.7,0,0,1-1.91.71,2.78,2.78,0,0,1-2-.71,2.63,2.63,0,0,1-.76-2V228.87a2.63,2.63,0,0,1,.76-2,2.78,2.78,0,0,1,2-.71,2.7,2.7,0,0,1,1.91.71,2.67,2.67,0,0,1,.75,2v37l22.07-19.85a3,3,0,0,1,1.86-.8,2.51,2.51,0,0,1,1.82.76,2.46,2.46,0,0,1,.75,1.81A2.52,2.52,0,0,1,420,250l-19.15,16.93,20.92,17.9A3,3,0,0,1,422.92,287Z"
                  transform="translate(-140.12 -146.03)"/>
            <path class="cls-2"
                  d="M465,245.17a2.61,2.61,0,0,1,1.77.71,2.18,2.18,0,0,1,.8,1.69,2.62,2.62,0,0,1-.26,1.15l-25.09,55a2.39,2.39,0,0,1-2.3,1.51,2.66,2.66,0,0,1-1.73-.62,2,2,0,0,1-.75-1.6,2.43,2.43,0,0,1,.26-1.06l6.3-13.74-18.17-39.53a2.32,2.32,0,0,1-.27-1.06,2.27,2.27,0,0,1,.93-1.82,3.13,3.13,0,0,1,2-.75,2.28,2.28,0,0,1,2.3,1.59l15.95,35.81,16-35.72A2.39,2.39,0,0,1,465,245.17Z"
                  transform="translate(-140.12 -146.03)"/>
            <path class="cls-2"
                  d="M506.5,247.75a18.26,18.26,0,0,1,6.74,7.75,26.83,26.83,0,0,1,2.39,11.66A27.64,27.64,0,0,1,513.24,279a18.48,18.48,0,0,1-6.74,7.89,18.15,18.15,0,0,1-10,2.79,17.48,17.48,0,0,1-9-2.26,14.23,14.23,0,0,1-5.76-6.6v5.84a2.77,2.77,0,0,1-.71,2,2.55,2.55,0,0,1-2,.75,2.58,2.58,0,0,1-2.74-2.75V228.87a2.58,2.58,0,0,1,2.74-2.75,2.55,2.55,0,0,1,2,.75,2.77,2.77,0,0,1,.71,2v25a14.18,14.18,0,0,1,5.76-6.6,17.38,17.38,0,0,1,9-2.26A18.29,18.29,0,0,1,506.5,247.75Zm-.22,32.43q3.77-4.69,3.76-13t-3.76-12.9q-3.76-4.56-10.59-4.56t-10.37,4.6q-3.65,4.62-3.64,13c0,5.62,1.23,9.94,3.68,13s5.92,4.56,10.42,4.56S503.77,283.32,506.28,280.18Z"
                  transform="translate(-140.12 -146.03)"/>
            <path class="cls-2"
                  d="M561.41,280.49a2.35,2.35,0,0,1,.57,1.56q0,1.95-3,3.81a25.85,25.85,0,0,1-13.47,3.81q-9.84,0-15.51-5.94t-5.68-16.31a26.16,26.16,0,0,1,2.53-11.74,18.82,18.82,0,0,1,7.09-7.89A19.75,19.75,0,0,1,544.44,245q8.32,0,13.16,5.36t4.83,14.76a3.37,3.37,0,0,1-.71,2.35,3.07,3.07,0,0,1-2.31.75H529.9q.27,8.16,4.25,12.41t11.26,4.25a17.37,17.37,0,0,0,6.38-1,43.21,43.21,0,0,0,5.5-2.7,6.29,6.29,0,0,1,2.74-1.33A1.78,1.78,0,0,1,561.41,280.49Zm-26.9-27.16q-3.72,3.9-4.43,10.9h27.38c-.12-4.73-1.3-8.37-3.54-11s-5.41-3.85-9.48-3.85A13.08,13.08,0,0,0,534.51,253.33Z"
                  transform="translate(-140.12 -146.03)"/>
            <path class="cls-2"
                  d="M596.11,245.62a2.06,2.06,0,0,1,.7,1.77c0,1.48-.88,2.31-2.65,2.48l-2.66.27q-6.3.62-9.35,4.52a14.35,14.35,0,0,0-3.06,9.13v22.95a2.76,2.76,0,0,1-.71,2,2.64,2.64,0,0,1-2,.71,2.78,2.78,0,0,1-2-.71,2.63,2.63,0,0,1-.76-2V247.92a2.66,2.66,0,0,1,.76-2,2.78,2.78,0,0,1,2-.71,2.52,2.52,0,0,1,1.86.71,2.67,2.67,0,0,1,.71,2v5.76q3.63-7.62,13.47-8.33l1.24-.09A3.79,3.79,0,0,1,596.11,245.62Z"
                  transform="translate(-140.12 -146.03)"/>
            <path class="cls-2"
                  d="M601.73,288.29a4.52,4.52,0,0,1,0-6.11,4,4,0,0,1,3-1.2,3.91,3.91,0,0,1,2.88,1.2,4.49,4.49,0,0,1,0,6.11,3.91,3.91,0,0,1-2.88,1.2A4,4,0,0,1,601.73,288.29Z"
                  transform="translate(-140.12 -146.03)"/>
            <path class="cls-2"
                  d="M424.78,333.75v25.09a2.74,2.74,0,0,1-.71,2,2.55,2.55,0,0,1-1.95.75,2.58,2.58,0,0,1-2.74-2.74V334.11q0-6.39-2.57-9.31t-8.16-2.92a13.78,13.78,0,0,0-10.24,3.9q-3.86,3.9-3.85,10.46v22.6a2.78,2.78,0,0,1-.71,2,2.55,2.55,0,0,1-2,.75,2.68,2.68,0,0,1-2-.75,2.65,2.65,0,0,1-.76-2V320a2.59,2.59,0,0,1,2.75-2.75,2.52,2.52,0,0,1,1.86.71,2.64,2.64,0,0,1,.71,1.95v5.58a14.36,14.36,0,0,1,5.89-6.25,17.92,17.92,0,0,1,8.91-2.17Q424.78,317.09,424.78,333.75Z"
                  transform="translate(-140.12 -146.03)"/>
            <path class="cls-2"
                  d="M473.22,352.59a2.31,2.31,0,0,1,.58,1.55q0,2-3,3.81a25.85,25.85,0,0,1-13.47,3.81q-9.84,0-15.51-5.94t-5.67-16.3a26.18,26.18,0,0,1,2.52-11.75,18.82,18.82,0,0,1,7.09-7.89,19.77,19.77,0,0,1,10.51-2.79q8.33,0,13.16,5.36t4.83,14.76a3.35,3.35,0,0,1-.71,2.35,3.05,3.05,0,0,1-2.31.75H441.71q.27,8.16,4.25,12.41T457.22,357a17.37,17.37,0,0,0,6.38-1,41.45,41.45,0,0,0,5.5-2.71,6.38,6.38,0,0,1,2.75-1.33A1.78,1.78,0,0,1,473.22,352.59Zm-26.9-27.17q-3.72,3.9-4.43,10.9h27.38q-.18-7.08-3.54-10.94t-9.48-3.86A13.08,13.08,0,0,0,446.32,325.42Z"
                  transform="translate(-140.12 -146.03)"/>
            <path class="cls-2"
                  d="M506.59,359.37a2,2,0,0,1-.8,1.68,3.84,3.84,0,0,1-2.57.53l-2.48-.17q-6.74-.45-10-4.12c-2.16-2.46-3.24-6.19-3.24-11.22V322.5H480.8a2.38,2.38,0,0,1-1.69-.58,2,2,0,0,1-.62-1.55,2.16,2.16,0,0,1,.62-1.59,2.27,2.27,0,0,1,1.69-.62h6.73v-11a2.76,2.76,0,0,1,.71-2,2.6,2.6,0,0,1,1.95-.71,2.78,2.78,0,0,1,2,.71,2.66,2.66,0,0,1,.75,2v11h10.72a2.4,2.4,0,0,1,1.78.62,2.16,2.16,0,0,1,.62,1.59,2,2,0,0,1-.62,1.55,2.51,2.51,0,0,1-1.78.58H492.94v23.84c0,3.66.71,6.28,2.13,7.84s3.63,2.47,6.64,2.71l2.4.17C505.76,357.24,506.59,358,506.59,359.37Z"
                  transform="translate(-140.12 -146.03)"/>
            <path class="cls-2"
                  d="M576.25,317.36a2.67,2.67,0,0,1,1.86.71,2.24,2.24,0,0,1,.8,1.77,5.15,5.15,0,0,1-.18.88l-14.8,38.65a2.89,2.89,0,0,1-1.19,1.51,3.39,3.39,0,0,1-3.64,0,2.89,2.89,0,0,1-1.19-1.51l-13.12-33.86-13,33.86a3,3,0,0,1-1.2,1.51,3.37,3.37,0,0,1-3.63,0,3,3,0,0,1-1.2-1.51l-14.89-38.56a2.85,2.85,0,0,1-.18-.88,2.4,2.4,0,0,1,.94-1.86,3,3,0,0,1,2-.8,2.29,2.29,0,0,1,2.3,1.68l12.94,35.1,13.39-34.83a3,3,0,0,1,1.15-1.51,2.88,2.88,0,0,1,1.6-.53,2.84,2.84,0,0,1,1.64.53,3.06,3.06,0,0,1,1.1,1.51L560.92,354,574,319A2.24,2.24,0,0,1,576.25,317.36Z"
                  transform="translate(-140.12 -146.03)"/>
            <path class="cls-2"
                  d="M595.17,359a18.44,18.44,0,0,1-6.95-7.79,29.27,29.27,0,0,1,0-23.58,18.4,18.4,0,0,1,6.95-7.8,21,21,0,0,1,20.79,0,18.11,18.11,0,0,1,7,7.8,29.82,29.82,0,0,1,0,23.58,18.14,18.14,0,0,1-7,7.79,21,21,0,0,1-20.79,0Zm20.88-6.55q3.72-4.53,3.72-13,0-8.34-3.77-13a12.66,12.66,0,0,0-10.41-4.65q-6.74,0-10.46,4.65t-3.72,13q0,8.51,3.63,13T605.5,357Q612.32,357,616.05,352.46Z"
                  transform="translate(-140.12 -146.03)"/>
            <path class="cls-2"
                  d="M659.21,317.71a2.09,2.09,0,0,1,.71,1.77c0,1.48-.89,2.31-2.66,2.49l-2.66.26q-6.29.63-9.35,4.52a14.37,14.37,0,0,0-3.06,9.13v23a2.79,2.79,0,0,1-.7,2,2.66,2.66,0,0,1-2,.7,2.8,2.8,0,0,1-2-.7,2.7,2.7,0,0,1-.75-2V320a2.67,2.67,0,0,1,.75-2,2.81,2.81,0,0,1,2-.71,2.55,2.55,0,0,1,1.86.71,2.64,2.64,0,0,1,.71,1.95v5.76q3.63-7.62,13.47-8.33l1.24-.09A3.77,3.77,0,0,1,659.21,317.71Z"
                  transform="translate(-140.12 -146.03)"/>
            <path class="cls-2"
                  d="M700.6,359.1a2.42,2.42,0,0,1-.71,1.73,2.23,2.23,0,0,1-1.68.75,3,3,0,0,1-1.86-.79l-24.11-20.57v18.62a2.5,2.5,0,0,1-2.66,2.74,2.78,2.78,0,0,1-2-.7,2.66,2.66,0,0,1-.76-2V301a2.65,2.65,0,0,1,.76-2,2.78,2.78,0,0,1,2-.71,2.52,2.52,0,0,1,2.66,2.75V338l22.07-19.85a3,3,0,0,1,1.86-.8,2.56,2.56,0,0,1,2.57,2.57,2.54,2.54,0,0,1-1.06,2.13L678.53,339l20.92,17.91A3,3,0,0,1,700.6,359.1Z"
                  transform="translate(-140.12 -146.03)"/>
            <path class="cls-3" d="M420.2,109" transform="translate(-140.12 -146.03)"/>
            <path class="cls-3" d="M420.2,486" transform="translate(-140.12 -146.03)"/>
            <path class="cls-3" d="M420.2,482.27" transform="translate(-140.12 -146.03)"/>
            <polygon class="cls-4" points="72.12 293.96 160.14 218.5 70.71 121.8 72.12 293.96"/>
            <polygon class="cls-5" points="6.75 76.2 21.25 216.75 72.28 289.98 69.76 5.26 6.75 76.2"/>
            <polygon class="cls-6" points="70.71 121.8 160.14 218.5 163.39 75.79 70.71 121.8"/>
            <polygon class="cls-7" points="69.76 5.26 70.71 121.8 163.39 75.79 69.76 5.26"/>
            <polygon class="cls-8"
                     points="69.72 6.71 6.71 77.65 21.22 218.2 74.52 292.78 160.14 218.5 163.4 75.46 69.72 6.71"/>
            <path class="cls-9" d="M215.28,152.87a5.44,5.44,0,1,1-5.31-5.56A5.43,5.43,0,0,1,215.28,152.87Z"
                  transform="translate(-140.12 -146.03)"/>
            <circle class="cls-9" cx="303.51" cy="221.82" r="5.44"
                    transform="translate(-203.04 159.75) rotate(-49.07)"/>
            <path class="cls-9" d="M152.27,223.81a5.44,5.44,0,1,1-5.31-5.56A5.44,5.44,0,0,1,152.27,223.81Z"
                  transform="translate(-140.12 -146.03)"/>
            <path class="cls-9" d="M166.78,364.36a5.44,5.44,0,1,1-5.32-5.56A5.44,5.44,0,0,1,166.78,364.36Z"
                  transform="translate(-140.12 -146.03)"/>
            <path class="cls-9" d="M217.83,436.14a5.44,5.44,0,1,1-5.31-5.56A5.44,5.44,0,0,1,217.83,436.14Z"
                  transform="translate(-140.12 -146.03)"/>
            <path class="cls-9" d="M305.18,365.66a5.44,5.44,0,1,1-5.31-5.56A5.44,5.44,0,0,1,305.18,365.66Z"
                  transform="translate(-140.12 -146.03)"/>
            <path class="cls-9" d="M215,269.71a5.44,5.44,0,1,1-5.32-5.56A5.44,5.44,0,0,1,215,269.71Z"
                  transform="translate(-140.12 -146.03)"/>
        </g>
    </g>
</svg>