<svg id="Layer_1" data-name="Layer 1" xmlns="http://www.w3.org/2000/svg" viewBox="0 0 300 300">
    <defs>
        <style>.cls-1{fill:#17191f;}</style>
    </defs>
    <title>Artboard 1</title>
    <path class="cls-1" d="M281.43,282H16V16.56H281.43Zm-259.7-5.73h254V22.3h-254Z"/>
    <path class="cls-1"
          d="M89.59,155.18c0,27.36.74,39.27,4.09,42.62,3,3,7.82,4.28,22.33,4.28,9.86,0,18.05-.19,22.52-5.58a25.93,25.93,0,0,0,4.84-11.17c.19-1.49.56-2.42,1.68-2.42.93,0,1.12.74,1.12,2.79a118.85,118.85,0,0,1-2.79,18.61c-1.3,4.28-1.86,5-11.72,5-13.4,0-23.08-.37-30.89-.56-7.82-.37-13.59-.56-19-.56-.74,0-3.91.19-7.63.19-3.72.19-7.82.37-10.61.37-2,0-3-.37-3-1.49,0-.56.37-1.12,1.49-1.12a28.75,28.75,0,0,0,5.58-.74c3.72-.74,4.65-4.84,5.4-10.24.93-7.82.93-22.52.93-40.38V122.06c0-29,0-34.24-.37-40.2-.37-6.33-1.86-9.31-8-10.61a34.82,34.82,0,0,0-6.33-.56c-.74,0-1.49-.37-1.49-1.12,0-1.12.93-1.49,3-1.49,8.37,0,20.1.56,21,.56s14.52-.56,20.1-.56c2,0,3,.37,3,1.49,0,.74-.74,1.12-1.49,1.12a43.72,43.72,0,0,0-6.14.56c-5.4.93-6.88,4.09-7.26,10.61-.37,6-.37,11.17-.37,40.2Z"/>
    <path class="cls-1"
          d="M207.25,203.93h7.16a8.17,8.17,0,0,0,3.86-1c.47,0,.47.66.47,1.13a21.93,21.93,0,0,1-.85,3.77,1.79,1.79,0,0,1-2,1.22h-8.66c0,3.11-.19,10.36.19,14.5.28,2.82,1,4.43,4,5.18a23.28,23.28,0,0,0,4.14.38.83.83,0,0,1,.85.75c0,.47-.47.66-1.51.66-5.18,0-11.21-.28-11.86-.28s-5.74.28-10.92.28c-1,0-1.51-.19-1.51-.66a.74.74,0,0,1,.75-.75c.85,0,2.92-.09,4.43-.28,3.11-.47,3.77-2.45,4-5.27.38-4.14.19-11.39.19-14.5H171.37c-1.13,0-2-.28-2-1.13a3.45,3.45,0,0,1,.85-2c.56-.66,31.17-42.09,34.18-46.23.75-1,1.32-1.7,2-1.7s.94.66.94,1.6c0,1.41-.09,8.95-.09,14.12Zm-7.16-33.33h-.19c-1.41,2.45-22.13,31-23.92,33.33h24.11Z"/>
    <circle class="cls-1" cx="191.15" cy="81.01" r="12.92"/>
</svg>