<?xml version="1.0" encoding="utf-8"?>
<!-- Generator: Adobe Illustrator 19.2.1, SVG Export Plug-In . SVG Version: 6.00 Build 0)  -->
<svg xmlns:xlink="http://www.w3.org/1999/xlink" version="1.1" id="E-LOGO-LPECO-142x58.AI" xmlns="http://www.w3.org/2000/svg"
	 x="0px" y="0px" width="142px" height="58px" viewBox="0 0 142 58" style="enable-background:new 0 0 142 58;"
	 xml:space="preserve">
<style type="text/css">
	.st0{fill:none;}
	.st1{fill:#000B12;}
	.st2{fill-rule:evenodd;clip-rule:evenodd;fill:#FFFFFF;}
	.st3{fill-rule:evenodd;clip-rule:evenodd;fill:#1EA0E6;}
	.st4{fill-rule:evenodd;clip-rule:evenodd;fill:#F03333;}
	.st5{fill-rule:evenodd;clip-rule:evenodd;fill:none;stroke:#FFFFFF;stroke-miterlimit:10;}
	.st6{fill:#FFFFFF;}
</style>
<g id="E-LOGO-LPMAG-142x58">
	<g>
		<polygon class="st0" points="28,49 37,49 32.5,35.824 		"/>
		<polygon class="st0" points="68,49 77,49 72.5,35.824 		"/>
		<rect x="104" y="34" class="st1" width="2" height="24"/>
		<polygon class="st1" points="123,56 111,34 108,34 108,58 110,58 110,36 122,58 125,58 125,34 123,34 		"/>
		<polygon class="st1" points="11,55 3,34 0,34 0,58 2,58 2,36 10.5,58 11.5,58 19,36 19,58 21,58 21,34 18,34 		"/>
		<polygon class="st1" points="142,36 142,34 127,34 127,58 142,58 142,56 129,56 129,46 140,46 140,44 129,44 129,36 		"/>
		<polygon class="st1" points="85,36 99,36 84,57.523 84,58 102,58 102,56 87,56 102,34.442 102,34 85,34 		"/>
		<path class="st1" d="M31.5,34L23,58h2l2.225-7h10.19L40,58h2l-8.5-24H31.5z M28,49l4.5-13.176L37,49H28z"/>
		<path class="st1" d="M71.5,34L63,58h2l2.225-7h10.19L80,58h2l-8.5-24H71.5z M68,49l4.5-13.176L77,49H68z"/>
		<path class="st1" d="M52,47h7c0,0.658,0.197,1.136,0.163,1.816c-0.034,0.68-0.124,1.343-0.27,1.99
			c-0.146,0.646-0.36,1.276-0.64,1.888c-0.281,0.612-0.657,1.168-1.129,1.667c-0.539,0.59-1.23,1.054-2.073,1.394
			c-0.843,0.34-1.747,0.51-2.713,0.51c-1.955,0-3.585-0.623-4.888-1.871c-0.562-0.544-1.017-1.173-1.365-1.888
			c-0.349-0.714-0.612-1.468-0.792-2.262c-0.18-0.793-0.303-1.599-0.371-2.415c-0.068-0.816-0.101-1.587-0.101-2.313
			c0-0.748,0.028-1.519,0.084-2.313c0.056-0.793,0.18-1.582,0.371-2.364c0.191-0.782,0.455-1.53,0.792-2.245
			c0.337-0.715,0.786-1.344,1.348-1.888c0.629-0.612,1.354-1.094,2.174-1.446c0.82-0.351,1.747-0.527,2.781-0.527
			c1.033,0,2.005,0.136,2.916,0.408c0.91,0.272,1.68,0.748,2.309,1.428c0.449,0.499,0.809,1.026,1.079,1.582
			c0.27,0.556,0.438,1.053,0.505,1.847h1.787c-0.09-1.043-0.36-1.824-0.809-2.697c-0.45-0.873-1.045-1.627-1.787-2.262
			c-0.741-0.634-1.624-1.133-2.646-1.497C54.702,33.182,53.573,33,52.337,33c-1.281,0-2.461,0.25-3.539,0.748
			c-1.079,0.499-2,1.122-2.764,1.871c-0.652,0.658-1.174,1.377-1.567,2.16c-0.393,0.782-0.703,1.604-0.927,2.466
			c-0.225,0.862-0.371,1.741-0.438,2.636C43.034,43.777,43,44.655,43,45.517c0,0.862,0.039,1.746,0.118,2.653
			c0.078,0.907,0.224,1.792,0.438,2.653c0.213,0.862,0.517,1.689,0.91,2.483c0.393,0.794,0.915,1.508,1.567,2.143
			c0.742,0.748,1.657,1.361,2.747,1.837C49.871,57.762,51.056,58,52.337,58c0.719,0,1.427-0.097,2.124-0.289
			c0.696-0.193,1.354-0.465,1.972-0.816c0.618-0.352,1.174-0.783,1.669-1.293c0.494-0.51,0.899-1.094,1.214-1.752L59.685,58H61V45
			h-9V47z"/>
	</g>
	<g id="E-LOGO-LP-96x30_1_">
		<rect id="Cartouche_blanc_1_" x="23" y="1" class="st2" width="96" height="30"/>
		<rect id="Cartouche_bleu_1_" x="23" y="1" class="st3" width="96" height="27"/>
		<rect id="Filet_rouge_1_" x="23" y="29" class="st4" width="96" height="2"/>
		<rect id="Filet_blanc_1_" x="22.5" y="0.5" class="st5" width="97" height="31"/>
		<g id="Le_Parisien_3_">
			<polygon id="L_3_" class="st6" points="39,27 32,27 32,10 35,10 35,25 39,25 39,27 			"/>
			<path id="e_7_" class="st6" d="M44,27c0,0-0.235,0.1-0.593,0.1C41.51,27.1,39,26.021,39,20.475c0-5.747,2.324-6.575,3.821-6.575
				c1.416,0,3.179,1.004,3.179,3.74l0,0c0,3.237-2.965,4.692-4.221,4.792c0.134,1.907,0.96,2.661,1.842,2.661
				C43.829,25.093,44,25,44,25V27z M43.5,17.607c0-1.162-0.282-1.607-0.789-1.607c-0.647,0-1.211,0.741-1.211,3.882
				c0,0.248,0,0.446,0.028,0.618C42.345,20.451,43.5,19.338,43.5,17.607L43.5,17.607z"/>
			<path id="P_3_" class="st6" d="M59,11.052c0,5.998-4.082,8.299-6,8.617V27h-3V4h2.361C55.815,4,59,5.952,59,11.052L59,11.052z
				 M56,11.25c0-3.39-1-4.272-3-4.272v9.851C54,16.743,56,15.307,56,11.25z"/>
			<path id="a_3_" class="st6" d="M63,27v-1l-1.154,1.042c-0.191,0.058-0.402,0.058-0.53,0.058C59.308,27.1,58,24.374,58,22.103
				c0-3.709,3-5.93,5-6.103v-0.677C63,14.454,62.244,14,61.415,14c-0.797,0-1.228,0.125-1.915,0.5v-2c0,0,0.749-0.6,2.151-0.6
				c2.422,0,4.348,0.902,4.348,4.205V27H63z M63,23.784V18.5c-0.542,0.058-2.104,1.355-2.104,3.603c0,1.437,0.606,2.52,1.147,2.52
				C62.522,24.623,62.872,24.131,63,23.784L63,23.784z"/>
			<path id="r_3_" class="st6" d="M74,14h-0.292C72.21,14,71,15.232,71,17v10h-3V12h3v1c0-0.377,0.986-1,2.516-1H74V14L74,14z"/>
			<path id="i_10_" class="st6" d="M78,11h-3V8h3V11L78,11z M78,27V12h-3v15H78L78,27z"/>
			<path id="s_2_" class="st6" d="M87,22.764c0,2.572-2.295,4.336-5.017,4.336c-1.181,0-2.163-0.174-2.983-0.492l1.279-2.226
				c0.459,0.203,0.885,0.261,1.409,0.261c1.016,0,1.836-0.665,1.836-1.561c0-1.04-0.427-1.82-1.607-3.121
				c-2.032-1.878-2.59-2.803-2.59-4.335c0-2.109,1.935-3.728,4.426-3.728c1.147,0,1.901,0.202,2.589,0.433l-1.181,2.11
				c-0.327-0.145-0.688-0.203-1.212-0.203c-0.721,0-1.312,0.52-1.312,1.126c0,0.578,0.262,1.156,1.574,2.342
				C86.114,19.384,87,20.656,87,22.764L87,22.764z"/>
			<path id="i_6_" class="st6" d="M91,11h-3V8h3V11L91,11z M91,27V12h-3v15H91L91,27z"/>
			<path id="e_6_" class="st6" d="M100,16.205c0,3.728-3.429,5.404-4.88,5.519c0.154,2.197,1.298,3.064,2.318,3.064
				c0.327,0,0.563-0.059,0.563-0.059v2.254c0,0-0.259,0.116-0.811,0.116C94.998,27.1,92,25.856,92,19.471
				c0-6.618,2.64-7.571,4.371-7.571C98.008,11.9,100,13.056,100,16.205z M97.1,15.963c0-1.42-0.309-1.963-0.868-1.963
				c-0.713,0-1.332,0.906-1.332,4.744c0,0.302,0,0.544,0.031,0.756C95.829,19.439,97.1,18.079,97.1,15.963L97.1,15.963z"/>
			<path id="n_2_" class="st6" d="M107,27V16c0-1.043-0.767-2-1.5-2c-0.765,0-1.5,0.957-1.5,2v11h-3V12h3v0.686l1.085-0.898
				c0.16-0.029,0.243-0.029,0.529-0.029c2.71,0,4.386,1.677,4.386,5.241l0,10H107z"/>
		</g>
	</g>
</g>
</svg>
