<svg xmlns:xlink="http://www.w3.org/1999/xlink" id="图层_1" data-name="图层 1" xmlns="http://www.w3.org/2000/svg"
     viewBox="0 0 360.35 299.67">
    <defs>
        <style>
            .cls-1{fill:none;}.cls-2{fill:url(#radial-gradient);}.cls-12,.cls-3{fill:#fff;}.cls-3{opacity:0.4;}.cls-4{fill:#84acdc;}.cls-5{fill:#a5a6d2;}.cls-6{fill:#fcd58f;}.cls-7{fill:#d4edf7;}.cls-8{fill:#ed7c81;}.cls-9{fill:#f7f4aa;}.cls-10{fill:#92d0c5;}.cls-11{fill:#8acfda;}.cls-13{fill:#c0a5ce;}.cls-14{fill:#a7d5b2;}.cls-15{fill:#f8ed00;}.cls-16{fill:#bae2f0;}.cls-17{fill:#f6c1d8;}.cls-18{fill:#0f2129;}.cls-19{clip-path:url(#clip-path);}
        </style>
        <radialGradient id="radial-gradient" cx="91.5" cy="424.63" r="133.47"
                        gradientTransform="translate(60.45 -342.96) scale(1.31 1.16)" gradientUnits="userSpaceOnUse">
            <stop offset="0" stop-color="#ffc119"/>
            <stop offset="0.66" stop-color="#fdbe16"/>
            <stop offset="1" stop-color="#f7a91b"/>
        </radialGradient>
        <clipPath id="clip-path" transform="translate(0.11 0.27)">
            <rect class="cls-1" x="85.27" y="43.99" width="189.59" height="211.17"/>
        </clipPath>
    </defs>
    <title>bespeaker</title>
    <rect class="cls-2" width="360.35" height="299.67"/>
    <polygon class="cls-3"
             points="181.22 68.53 184.48 22.3 184.62 68.64 189.82 22.59 188.02 68.9 195.14 23.11 191.4 69.3 200.43 23.84 194.76 69.84 205.69 24.8 198.1 70.52 210.9 25.98 201.4 71.34 216.06 27.38 204.67 72.3 221.16 28.99 207.9 73.39 226.18 30.81 211.07 74.62 231.13 32.84 214.2 75.98 235.98 35.08 217.26 77.47 240.74 37.51 220.26 79.09 245.39 40.15 223.18 80.83 249.92 42.98 226.04 82.69 254.34 45.99 228.81 84.67 258.62 49.19 231.49 86.76 262.77 52.56 234.09 88.97 266.77 56.1 236.59 91.28 270.62 59.81 238.99 93.69 274.31 63.68 241.29 96.2 277.83 67.7 243.49 98.81 281.19 71.86 245.57 101.51 284.36 76.16 247.53 104.29 287.36 80.58 249.38 107.15 290.16 85.13 251.11 110.08 292.78 89.8 252.71 113.09 295.19 94.56 254.19 116.16 297.4 99.43 255.53 119.29 299.41 104.38 256.74 122.47 301.21 109.42 257.82 125.7 302.8 114.52 258.76 128.97 304.17 119.69 259.57 132.28 305.32 124.9 260.24 135.62 306.26 130.17 260.76 138.99 306.97 135.46 261.14 142.37 307.46 140.78 261.38 145.77 307.73 146.12 261.49 149.17 307.77 151.47 261.44 152.58 307.59 156.81 261.25 155.98 307.19 162.14 260.93 159.37 306.56 167.45 260.46 162.74 305.71 172.72 259.85 166.09 304.64 177.96 259.09 169.41 303.36 183.15 258.2 172.7 301.85 188.28 257.18 175.95 300.14 193.34 256.02 179.15 298.21 198.32 254.72 182.3 296.07 203.22 253.3 185.39 293.74 208.03 251.75 188.43 291.2 212.74 250.07 191.39 288.47 217.33 248.26 194.28 285.55 221.81 246.34 197.09 282.44 226.16 244.31 199.82 279.16 230.37 242.16 202.46 275.7 234.44 239.9 205.01 272.07 238.37 237.54 207.46 268.28 242.14 235.07 209.81 264.34 245.75 232.51 212.06 260.25 249.19 229.86 214.2 256.02 252.46 227.12 216.22 251.65 255.54 224.3 218.13 247.16 258.44 221.4 219.92 242.56 261.15 218.43 221.58 237.84 263.67 215.39 223.12 233.02 265.98 212.29 224.53 228.11 268.09 209.14 225.81 223.12 270 205.93 226.96 218.05 271.69 202.68 227.97 212.91 273.17 199.39 228.84 207.72 274.43 196.06 229.58 202.48 275.48 192.71 230.17 197.2 276.3 189.33 230.63 191.89 276.9 185.94 230.94 186.56 277.28 182.54 231.11 181.21 277.44 179.13 231.14 175.87 277.37 175.73 231.02 170.53 277.07 172.33 230.77 165.21 276.56 168.95 230.37 159.92 275.82 165.59 229.83 154.66 274.86 162.25 229.15 149.45 273.69 158.95 228.32 144.29 272.29 155.68 227.37 139.19 270.68 152.45 226.27 134.17 268.86 149.28 225.05 129.22 266.83 146.15 223.69 124.37 264.59 143.09 222.2 119.61 262.15 140.09 220.58 114.96 259.52 137.17 218.84 110.43 256.69 134.31 216.98 106.01 253.68 131.54 215 101.73 250.48 128.86 212.91 97.58 247.11 126.26 210.7 93.58 243.56 123.76 208.39 89.73 239.85 121.36 205.98 86.04 235.99 119.06 203.46 82.52 231.97 116.86 200.86 79.16 227.81 114.78 198.16 75.99 223.51 112.82 195.38 72.99 219.08 110.97 192.52 70.19 214.53 109.24 189.58 67.58 209.87 107.64 186.58 65.16 205.1 106.16 183.51 62.95 200.24 104.82 180.38 60.94 195.28 103.61 177.2 59.14 190.25 102.53 173.97 57.55 185.15 101.58 170.69 56.18 179.98 100.78 167.39 55.03 174.76 100.11 164.04 54.09 169.5 99.59 160.68 53.38 164.2 99.21 157.3 52.89 158.88 98.97 153.9 52.62 153.54 98.87 150.5 52.58 148.2 98.91 147.09 52.76 142.86 99.1 143.69 53.16 137.53 99.42 140.3 53.79 132.22 99.89 136.93 54.64 126.94 100.5 133.57 55.71 121.71 101.26 130.25 56.99 116.52 102.14 126.97 58.5 111.39 103.17 123.72 60.21 106.33 104.33 120.52 62.14 101.34 105.63 117.37 64.28 96.44 107.05 114.27 66.61 91.64 108.61 111.24 69.15 86.93 110.28 108.28 71.88 82.34 112.08 105.39 74.8 77.86 114.01 102.58 77.91 73.51 116.04 99.85 81.19 69.3 118.19 97.2 84.65 65.22 120.45 94.66 88.28 61.3 122.81 92.2 92.07 57.53 125.28 89.85 96.01 53.92 127.84 87.61 100.1 50.48 130.49 85.47 104.33 47.21 133.23 83.44 108.7 44.13 136.05 81.54 113.19 41.22 138.95 79.75 117.79 38.52 141.92 78.08 122.51 36 144.96 76.54 127.33 33.69 148.06 75.13 132.24 31.57 151.21 73.85 137.23 29.67 154.42 72.71 142.3 27.98 157.67 71.7 147.44 26.5 160.96 70.82 152.63 25.23 164.29 70.09 157.87 24.19 167.64 69.49 163.15 23.37 171.02 69.04 168.46 22.77 174.41 68.73 173.79 22.39 177.81 68.56 179.14 22.23 181.22 68.53"/>
    <path class="cls-4"
          d="M220.46,205.42a163.46,163.46,0,0,1-18.37,15l-.23-.32a78.23,78.23,0,0,0,14.87-13.81l.1,0a16.73,16.73,0,0,1,3.63-.87Z"
          transform="translate(0.11 0.27)"/>
    <path class="cls-5" d="M249.74,187.47l-1.3,1.9a25.56,25.56,0,0,0-7,.88l-.6.14a23.62,23.62,0,0,1,8.86-2.92Z"
          transform="translate(0.11 0.27)"/>
    <path class="cls-5"
          d="M235.25,204.06a3.26,3.26,0,0,0,.63-3l0,0a3.57,3.57,0,0,0-3-2.35,25.89,25.89,0,0,1,7.77.68c-1.63,1.87-3.29,3.7-5,5.48l-.6-.57a1.45,1.45,0,0,0,.21-.22Z"
          transform="translate(0.11 0.27)"/>
    <path class="cls-6"
          d="M202.84,181.21a11.54,11.54,0,0,0-4.82-1.78c.23-1.92.35-3.77.39-5.48h0a.12.12,0,0,0,.05-.05,114.77,114.77,0,0,0,6.29-9.91,1,1,0,0,0,.41.09.67.67,0,0,0,.43-.14.68.68,0,0,0,.19-.8,3.53,3.53,0,0,0-.17-.33c0-.06-.07-.12-.1-.19q1.34-2.45,2.53-4.92a.55.55,0,0,0,.05-.33c.34-.22.66-.44,1-.65a17.6,17.6,0,0,1,2.32-1.45c1,1.51,3,4.09,5.41,5.12A111.68,111.68,0,0,1,203.56,182a9.25,9.25,0,0,0-.66-.72l-.06,0Z"
          transform="translate(0.11 0.27)"/>
    <path class="cls-7"
          d="M241.28,45.14c1.38,0,2.54.81,2.54,1.76s-1.16,1.75-2.54,1.75-2.53-.8-2.53-1.75,1.16-1.76,2.53-1.76Z"
          transform="translate(0.11 0.27)"/>
    <path class="cls-7"
          d="M204.91,46.44c1.38,0,2.53.8,2.53,1.75S206.29,50,204.91,50s-2.53-.8-2.53-1.76,1.16-1.75,2.53-1.75Z"
          transform="translate(0.11 0.27)"/>
    <path class="cls-7"
          d="M191.92,68.52c1.51,0,2.8.75,2.8,1.63s-1.29,1.62-2.8,1.62-2.79-.74-2.79-1.62,1.28-1.63,2.79-1.63Z"
          transform="translate(0.11 0.27)"/>
    <path class="cls-7"
          d="M273.69,85.21c0,3.05-3.12,5.53-6.95,5.53a9.39,9.39,0,0,1-1.19-.08c-3.27-.45-5.76-2.72-5.76-5.45a4.43,4.43,0,0,1,.36-1.73.61.61,0,0,0,0-.54.56.56,0,0,0-.47-.26l-.65,0h0a.58.58,0,0,0-.39.15.53.53,0,0,0-.19.41,7.25,7.25,0,0,1-4.12,6,9.69,9.69,0,0,1-8.38.17A7.36,7.36,0,0,1,241.35,83a.58.58,0,0,0-.49-.56,14.44,14.44,0,0,1-5.93-2.29A9.25,9.25,0,0,1,232.65,78a.58.58,0,0,0-.58-.24,16,16,0,0,1-3,.28,16.18,16.18,0,0,1-5.14-.82,15.07,15.07,0,0,1-2.79-1.29.61.61,0,0,0-.61,0,13,13,0,0,1-4.76,1.65.41.41,0,0,0-.19,0l-.13,0a18.1,18.1,0,0,1-2.36.16,16.74,16.74,0,0,1-4.29-.55c-3.31-.89-5.64-2.75-5.64-4.85,0-1.29.89-2.56,2.51-3.55a.59.59,0,0,0-.21-1.08c-4.35-.64-7.5-3.28-7.5-6.28,0-3.54,4.29-6.43,9.55-6.43a13.37,13.37,0,0,1,3.24.39.57.57,0,0,0,.49-.11.53.53,0,0,0,.23-.44c.08-3.78,4.36-6.85,9.55-6.85s9.55,3.12,9.55,7a5.09,5.09,0,0,1-.23,1.49.57.57,0,0,0,.08.49.59.59,0,0,0,.42.26,14.18,14.18,0,0,1,8.61,3.92.6.6,0,0,0,.48.17.61.61,0,0,0,.43-.28c1.7-2.85,5.63-4.69,10-4.69,6,0,10.84,3.41,10.84,7.6a6,6,0,0,1-1.55,3.91.59.59,0,0,0-.09.62.6.6,0,0,0,.54.34c5.76,0,10.45,3.12,10.45,7a5.25,5.25,0,0,1-1.4,3.46.62.62,0,0,0-.12.54.55.55,0,0,0,.38.39c2.59.87,4.26,2.87,4.26,5.09Z"
          transform="translate(0.11 0.27)"/>
    <path class="cls-7"
          d="M267,189.34c1.21.58,1.9,1.76,1.51,2.57a1.62,1.62,0,0,1-1.53.76,3.36,3.36,0,0,1-1.42-.34c-1.2-.58-1.89-1.76-1.5-2.57a1.61,1.61,0,0,1,1.52-.76,3.32,3.32,0,0,1,1.42.34Z"
          transform="translate(0.11 0.27)"/>
    <path class="cls-7"
          d="M270.18,167.57c1.52,0,2.8.74,2.8,1.62s-1.28,1.63-2.8,1.63-2.79-.75-2.79-1.63,1.28-1.62,2.79-1.62Z"
          transform="translate(0.11 0.27)"/>
    <path class="cls-8"
          d="M215.22,78.8c3.06,16.26,3.58,31.75,1.53,46.05a32,32,0,0,0-4.09-5.36c0-.31,0-.64,0-1a21.58,21.58,0,0,0-1.83-8.78h0a.43.43,0,0,0,.06-.22,145.57,145.57,0,0,0-1.63-31,18.2,18.2,0,0,0,3.85.39,21.08,21.08,0,0,0,2.13-.11Z"
          transform="translate(0.11 0.27)"/>
    <path class="cls-6"
          d="M223.23,78.18c5.23,23.8,5.11,45.85-.34,65.54a30.09,30.09,0,0,0-4-1.24,15.07,15.07,0,0,0,1.42-6.31,21.13,21.13,0,0,0-2.72-9.88.58.58,0,0,0,.19-.36c2.22-14.67,1.75-30.59-1.39-47.3a14,14,0,0,0,4.46-1.55,16.71,16.71,0,0,0,2.39,1.1Z"
          transform="translate(0.11 0.27)"/>
    <path class="cls-9"
          d="M216.52,178.1c-4,2.17-7.15,8.41-9.12,12.34l-.1-.06-.14,0a23.16,23.16,0,0,0-2.88-7.38,112.77,112.77,0,0,0,13.62-22.22,4.28,4.28,0,0,0,2.32-.19c2.84-1.08,4.94-6.82,5.52-10.55.3-1.86.41-4.26-.74-5.18a5.68,5.68,0,0,0-1-.62c5.49-19.73,5.68-41.8.54-65.61a17.65,17.65,0,0,0,4.56.59,17,17,0,0,0,2.85-.23,10.31,10.31,0,0,0,2.06,2h0c8,36.85,2.79,69.22-15.39,96.21a.05.05,0,0,0,0,0,10.71,10.71,0,0,0-2,.9Z"
          transform="translate(0.11 0.27)"/>
    <path class="cls-10"
          d="M234.37,170.75a45.4,45.4,0,0,0-12.82,9.57,2.93,2.93,0,0,0-.38-2.77,1.74,1.74,0,0,0-1.08-.53c17.75-26.82,22.88-58.83,15.27-95.18a16.09,16.09,0,0,0,4.85,1.7A8.51,8.51,0,0,0,245,90.23c5.43,30.06,1.84,57.14-10.64,80.49v0Z"
          transform="translate(0.11 0.27)"/>
    <path class="cls-4"
          d="M254.19,90.48c6.1,30.08,3.34,57.21-8.2,80.74a3.42,3.42,0,0,0-1.81-2.2c-2.35-1.16-6.13.22-8.11,1,12-23.1,15.42-49.74,10.23-79.23a10.86,10.86,0,0,0,7.89-.3Z"
          transform="translate(0.11 0.27)"/>
    <path class="cls-5"
          d="M264.92,91.74c6.61,30.65,4.1,58.3-7.44,82.21a13.73,13.73,0,0,0-5.67-.79,18.58,18.58,0,0,0-6.45,1.85c13.1-24.59,16.44-53.21,9.91-85.08a8.83,8.83,0,0,0,3.46-3.64c.52,2.68,3,4.84,6.19,5.45Z"
          transform="translate(0.11 0.27)"/>
    <path class="cls-7"
          d="M248.81,190.58a11.14,11.14,0,0,1,2.85.65,5.13,5.13,0,0,1,3.26,3.9,3.61,3.61,0,0,1-1.61,3.45c-3.18,2-7.33.93-11,0l-.41-.11-.64-.16c-4.78-1-8-1.42-13,.22a.58.58,0,0,0-.39.64.59.59,0,0,0,.58.49h.78c2.07,0,4.89-.09,5.48,1.72a2.13,2.13,0,0,1-.38,1.94c-.89,1-2.94,1.36-4.48,1.23l-2.18-.17a47.3,47.3,0,0,0-5.64-.24H222a18.9,18.9,0,0,0-3.93.56q2.19-2.74,4.22-5.75a1.93,1.93,0,0,0,.29-1.78c-.67-1.91-4.48-3.09-8.89-4.46-1.84-.57-3.73-1.16-5.21-1.78,1.9-3.8,5-9.8,8.61-11.8a8.12,8.12,0,0,1,2.17-.9c.71-.14,1,0,1.08.14.48.5.2,2.29-1.11,4.43a.59.59,0,0,0,.93.7c3.94-4.28,8.78-9,15-11.83.37-.17.75-.34,1.13-.49,1.75-.68,5.39-2.08,7.37-1.11a2.72,2.72,0,0,1,1.11,3.46c-.52,1-1.77,2-3.38,3.08a11.82,11.82,0,0,0-3.27,2.86.58.58,0,0,0,.79.82c.86-.52,1.66-1,2.44-1.54s1.71-1.11,2.56-1.61a.6.6,0,0,0,.42-.25,18.34,18.34,0,0,1,7.57-2.56,12.39,12.39,0,0,1,5.42.81l.16.13a.75.75,0,0,0,.26.05,8.1,8.1,0,0,1,2.51,1.71,5.28,5.28,0,0,1,1.55,4.44c-.43,3.47-5.69,4.06-9.52,4.5l-1.52.18-.54.08c-3.42.46-8.4,1.47-12.19,4.81a.57.57,0,0,0-.14.69.58.58,0,0,0,.62.33c1.1-.19,2.18-.43,3.22-.66a22.6,22.6,0,0,1,7.07-.81Z"
          transform="translate(0.11 0.27)"/>
    <path class="cls-8"
          d="M157.55,200.52c.59.28,1.21.53,1.85.76-9.25,5-15.78,11.22-19.52,18.48a222,222,0,0,1-38.64,14.77l-.61.16c-4,1-6.15.62-6.41-.2-.45-1.44,3.28-5.13,11.22-8,14.88-5.47,34.24-13.35,52.11-25.93Z"
          transform="translate(0.11 0.27)"/>
    <path class="cls-6"
          d="M139.07,221.45a33.26,33.26,0,0,0-2.51,8.6C115.13,239,105.08,241,95.36,242.88c-1.82.36-3.7.73-5.6,1.14h-.08c-.49.1-1,0-1.16-.41-.25-.89,1.5-4,12.4-7.76a.56.56,0,0,0,.17-.09l.46-.12a221.8,221.8,0,0,0,37.52-14.2Z"
          transform="translate(0.11 0.27)"/>
    <path class="cls-9"
          d="M146.32,232.76c-27.09,11.77-37.48,13.59-49.87,15.52l-1,.16c-5,.77-8.82-.43-9-1.38-.08-.37.79-1.19,3.49-1.89h0c1.9-.41,3.72-.77,5.63-1.15,9.82-1.93,20-3.94,41.72-13l0,0a69.34,69.34,0,0,0,9,1.77Z"
          transform="translate(0.11 0.27)"/>
    <path class="cls-10"
          d="M158.05,233.56c1.35,0,2.73,0,4.15-.11-18.8,8.75-36.68,14.18-47.46,16.4-.54.11-1.48.28-2.67.48a.51.51,0,0,0-.32,0l-.07,0c-2.31.38-5.44.83-8.49,1.15-7.93.85-9.38.22-9.63,0,.09-.18.59-.83,3.28-2.17h0c12.61-2,23.25-3.87,51.42-16.21a.6.6,0,0,0,.22-.16,87.46,87.46,0,0,0,9.57.53Z"
          transform="translate(0.11 0.27)"/>
    <path class="cls-4"
          d="M195.15,224.32a72.24,72.24,0,0,0,6.71-4.2l.23.32c-23,16.25-48.56,26.32-66.54,30.5l-1,.23c-5.14,1.15-23.09,2.92-25.26,1.8a9.25,9.25,0,0,1,2.73-1.45h0c1.32-.21,2.36-.4,3-.52,11.36-2.34,30.55-8.22,50.43-17.76l1.93-.19a74.3,74.3,0,0,0,27.81-8.72Z"
          transform="translate(0.11 0.27)"/>
    <path class="cls-5"
          d="M235,204.28l.6.57c-24.59,25.56-57.81,41.1-81.86,47.28-5.52,1.42-17.2,2.77-18.24,1-.13-.21.05-.63.5-1.15,23.44-5.49,59.55-20.86,86.25-46.74h0a49.77,49.77,0,0,1,5.32.24l2.19.17c1.65.14,3.95-.16,5.24-1.41Z"
          transform="translate(0.11 0.27)"/>
    <path class="cls-11"
          d="M221.47,197.55a.79.79,0,0,1-.16.74q-2.51,3.71-5.26,7a74.9,74.9,0,0,1-21.44,18,73.26,73.26,0,0,1-27.35,8.59l-1.66.17a.57.57,0,0,0-.46,0l0,0a86,86,0,0,1-17-.27,71.32,71.32,0,0,1-10.38-1.93,32,32,0,0,1,3-9.35c3-6,8-11.25,14.89-15.71-2.32,2.36-4.72,5.29-5.13,7.65a.55.55,0,0,0,.15.49c.27.3,6.87,7.38,16.32,8.76h.08a.6.6,0,0,0,.43-.18,85,85,0,0,0,6.6-8.15,41.31,41.31,0,0,0,5.29-9.53h.16A22,22,0,0,0,189,199c-.44,4-.7,9.78,1,12.5a.61.61,0,0,0,.44.27c.11,0,.85.08,2,.08,3.32,0,10.1-.54,16-4.42a.61.61,0,0,0,.26-.47,83.38,83.38,0,0,0-.51-10.48c-.19-1.71-.43-3.3-.72-4.76a53,53,0,0,0,5.88,2.06c3.41,1.06,7.65,2.38,8.13,3.74Z"
          transform="translate(0.11 0.27)"/>
    <path class="cls-12"
          d="M224.27,145.72c.39.32.72,1.58.32,4.09-.62,3.93-2.74,8.86-4.79,9.64a3.21,3.21,0,0,1-2.12,0c-2.44-.78-4.69-3.89-5.46-5a.86.86,0,0,0-.54-.36c-.64-.12-1.47.42-3.29,1.67l-1.12.77a58.77,58.77,0,0,1,7.73-8.73,18.85,18.85,0,0,0,3.33-4.25l.11,0A28.05,28.05,0,0,1,223,145a6.65,6.65,0,0,1,1.25.69Z"
          transform="translate(0.11 0.27)"/>
    <path class="cls-13"
          d="M212.72,121.31c2.08,2.44,6.44,8.34,6.41,14.86a13.63,13.63,0,0,1-1.59,6.37,17.11,17.11,0,0,1-3.36,4.41c-5,4.87-7.66,8.28-9,10.7-1.14,2.1-1.29,3.47-1.13,4.39a8.14,8.14,0,0,1-1.24-1.7c-1-1.86-1.92-5-.47-9.74a6.74,6.74,0,0,0,1.59,2.13,1.16,1.16,0,0,0,.65.23.93.93,0,0,0,.43-.11c.46-.26.64-.88.58-2l0-.66c-.36-6.73-.39-7.28,4.18-12.77,3.76-4.51,3.62-6.5,3.22-11.8-.09-1.21-.19-2.63-.27-4.31Z"
          transform="translate(0.11 0.27)"/>
    <path class="cls-12"
          d="M206.11,191.05a76.19,76.19,0,0,1,1.42,15.6c-6.81,4.36-15.05,4.11-16.7,4-1.11-2.12-1.3-6.87-.52-12.85v-.05c3.66-3.81,6.14-9.14,7.33-15.85.08-.44.15-.88.22-1.32a10.65,10.65,0,0,1,4.26,1.54,8.24,8.24,0,0,1,.89,1,21.41,21.41,0,0,1,3.1,7.88Z"
          transform="translate(0.11 0.27)"/>
    <path class="cls-12"
          d="M156.54,168.09c.23,0,.63,0,.7.22a1.12,1.12,0,0,1-.06.68c-3,0-6.39-1.52-8.65-2.5-2-.88-2.77-1.18-3.31-.87a.76.76,0,0,0-.38.58c-.22,1.76-1.2,7.54-4.55,7.87-2.18.22-6.28-3.25-8.59-6.49-1.47-2.07-1.75-3.33-1.54-3.79.83-1.79,6.51-7.08,10.64-8.53a3.53,3.53,0,0,1,2.6-.16c3.55,1.77,13.45,4.21,17,3a8.32,8.32,0,0,0,3.16-2.17,20.77,20.77,0,0,0,10.07,2.51,27.09,27.09,0,0,0,17-6.44,14.88,14.88,0,0,0,5.59,1.31,7.25,7.25,0,0,0,2.35-.36,8.21,8.21,0,0,0,2.29-1.37,12.9,12.9,0,0,0,.63,8.8,9.06,9.06,0,0,0-2.1,1.84,12.84,12.84,0,0,1-2,1.86.59.59,0,0,0-.44.15.58.58,0,0,0-.19.53,56.06,56.06,0,0,1,.48,8.84,54,54,0,0,1-.47,6.33c-.08.6-.18,1.21-.29,1.83-1.18,6.69-3.6,11.88-7.22,15.51a20.64,20.64,0,0,1-9.42,5.36,12.23,12.23,0,0,0,.51-4.07s0-.06,0-.08a12.54,12.54,0,0,0-6.14-7.6.58.58,0,1,0-.56,1,11.61,11.61,0,0,1,5.55,6.79,11.81,11.81,0,0,1-.7,4.34c-2.41,7.3-10.23,16.05-11.61,17.55-8-1.29-14-7-15.12-8.13.88-3.55,6.76-8.74,8.67-10.36l.93-.49a.58.58,0,0,0-.53-1h0a19.4,19.4,0,0,1-3.14-1.21,13.47,13.47,0,0,1-7.78-9.93c-1.11-5.88,1.33-12.88,5.67-16.27A10.13,10.13,0,0,0,158,170a2.81,2.81,0,0,0,.3-2.05c-.16-.46-.61-1-1.83-1a.59.59,0,1,0,0,1.17Z"
          transform="translate(0.11 0.27)"/>
    <path class="cls-12"
          d="M172.8,146.4a.59.59,0,0,0-.42-.71,3.37,3.37,0,0,0-2.81.34,3.63,3.63,0,0,0-1.42,2.32.58.58,0,0,0,.48.66h.09a.59.59,0,0,0,.58-.49,2.46,2.46,0,0,1,.92-1.52,2.24,2.24,0,0,1,1.87-.18.59.59,0,0,0,.71-.42ZM192.42,119l.25.1,4.78,1.6a53.4,53.4,0,0,0,1.08,18.93l-.09.14a30.06,30.06,0,0,1-3.2,5.57c-.3.42-.61.84-.94,1.23,1.13-2.4,2.07-5.39,1.5-8a6,6,0,0,0-2.78-3.93,3.46,3.46,0,0,1,1.89-.46.59.59,0,0,0,0-1.17,4.14,4.14,0,0,0-3.23,1.24,4.44,4.44,0,0,0-1,3.17.59.59,0,0,0,.58.53h.06a.57.57,0,0,0,.52-.63,3.68,3.68,0,0,1,.36-1.8,5,5,0,0,1,2.46,3.31c1,4.38-3.17,10.44-3.86,11.41-8,7.15-18.91,9.07-27.05,4.34-.53-.31-1-.64-1.55-1-4.23-3-6.48-7.55-6.75-13.58a6,6,0,0,0,3.75-2.52c1.51-2.28,1.66-5.89.45-10.76a5.06,5.06,0,0,0,1.18.13,6.81,6.81,0,0,0,1.35-.14c-.81,4.27-.36,7.67,1.33,10.12,1.57,2.29,4.2,3.72,7.82,4.26a8.35,8.35,0,0,0,1.31.1c3.24,0,5.88-2,7.64-5.67a20.69,20.69,0,0,0,1.62-5.22c2.08-2.35,6.25-6.83,8.24-7.4.69-.2,2.3,1.58,2.8.78s0-3.63-.54-4.22a.44.44,0,0,0-.15-.1l.16-.37Z"
          transform="translate(0.11 0.27)"/>
    <path class="cls-14"
          d="M204.45,151.64a8.82,8.82,0,0,1-1.49-2.37.45.45,0,0,0-.11-.23,48.66,48.66,0,0,1-3.11-9.19A51.62,51.62,0,0,1,198.59,121l8.74,1.22h0a.58.58,0,0,0,.58-.54v0a.58.58,0,0,0-.54-.58c-6.3-.47-6.5-5.88-6.66-9.82a14.67,14.67,0,0,0-.22-2.58,20.47,20.47,0,0,0-3.22-7.5,18.41,18.41,0,0,1,6.24,2.22,14.91,14.91,0,0,1,6,6.4,20.63,20.63,0,0,1,1.89,8.75c0,.35,0,.69,0,1a.5.5,0,0,0,0,.32c.07,2.37.21,4.26.33,5.83.39,5.23.5,6.82-3,11-4.87,5.84-4.82,6.72-4.46,13.58l0,.66a4,4,0,0,1,0,.73Z"
          transform="translate(0.11 0.27)"/>
    <path class="cls-15"
          d="M155.07,90.27c3.34,2,2.84,3.68,2.83,3.68a.19.19,0,0,1,0,.07L157,97.4a22.6,22.6,0,0,1-2-7.13Z"
          transform="translate(0.11 0.27)"/>
    <path class="cls-15" d="M161.36,97.54,159,102.4A4.58,4.58,0,0,1,157.83,99h0l1-4.16a5.89,5.89,0,0,1,2.48,2.73Z"
          transform="translate(0.11 0.27)"/>
    <path class="cls-15" d="M164.18,101.73l-3.13,6a4.89,4.89,0,0,1-1.39-4l.05-.11,2.65-5.47c1.62.85,1.8,3,1.82,3.58Z"
          transform="translate(0.11 0.27)"/>
    <path class="cls-15"
          d="M165.1,102.48c1,.15,4,1,4.65,5.5a20.83,20.83,0,0,0-5.86,3.56l-.64.52a2.8,2.8,0,0,1-1.4-1.11,2.41,2.41,0,0,1-.17-1.91l0-.07,3.39-6.49Z"
          transform="translate(0.11 0.27)"/>
    <path class="cls-16"
          d="M163.48,113.29h0l.09,0h0a9.6,9.6,0,0,1,8.82.08c-3.84-.16-6.47,1.33-7.2,4.22-.11.48-.74.83-1.66.94a7.3,7.3,0,0,1-6.93-3.48,2.18,2.18,0,0,1-.21-2.12c.69-1.28,3.17-1.79,4.15-1.89a3.87,3.87,0,0,0,.25.55,4.14,4.14,0,0,0,2.37,1.73l.1,0h.17Z"
          transform="translate(0.11 0.27)"/>
    <path class="cls-12"
          d="M192.42,119l-.16.37c-.52-.2-1.49.56-1.95.81-1.93,1.06-6.61,5-8.49,6.53a30.73,30.73,0,0,0-19-1.37h0l-.3.09h0a4.38,4.38,0,0,1-3.33-.12l-.06,0-.05,0h0c-.16-.07-.54-.22-1.09-.41q.8-2.56,1.83-5.34l0,0a.56.56,0,0,0,0-.44,8.8,8.8,0,0,0,3.19.64,7,7,0,0,0,.81,0c1.44-.17,2.41-.84,2.66-1.82.7-2.8,3.67-3.92,8.16-3.07a.6.6,0,0,0,.62-.3.59.59,0,0,0-.1-.69,10.16,10.16,0,0,0-3.32-2,10.55,10.55,0,0,0-5.35-.56A25,25,0,0,1,170.5,109c8.4.27,11.35,2.66,14.77,5.41a30.17,30.17,0,0,0,7.15,4.61Z"
          transform="translate(0.11 0.27)"/>
    <path class="cls-17"
          d="M199.6,111.29c.1,2.8.26,7,3.09,9.28-1.66-.24-3.15-.53-4.49-.85a27.22,27.22,0,0,1-12.2-6.2c-3.39-2.73-6.59-5.31-15.1-5.65a1.1,1.1,0,0,0,0-.18.59.59,0,0,0,.06-.32c0-.06-.54-5.46,2.68-9,1.89-2.08,4.73-3.1,8.42-3,6.46.09,10.62,2.29,13.29,5.25a.58.58,0,0,0,.31.34,18.3,18.3,0,0,1,3.76,8,15,15,0,0,1,.2,2.37Z"
          transform="translate(0.11 0.27)"/>
    <path class="cls-12" d="M180.31,130.63a.49.49,0,0,1,0,.34l-.37-.78a.56.56,0,0,1,.41.44Z"
          transform="translate(0.11 0.27)"/>
    <path class="cls-12"
          d="M179.86,131.31a52.9,52.9,0,0,0-8.84,3,.58.58,0,0,1-.58-.08.56.56,0,0,1-.22-.54l.31-2a20.62,20.62,0,0,0-6,2.94.66.66,0,0,1-.35.11.56.56,0,0,1-.46-.23.65.65,0,0,1-.09-.16.61.61,0,0,1,.2-.65,21.55,21.55,0,0,1,7.31-3.34.56.56,0,0,1,.52.14.6.6,0,0,1,.17.51l-.28,1.83a48.8,48.8,0,0,1,8.12-2.68.46.46,0,0,1,.26,0l.37.78a.57.57,0,0,1-.41.34Z"
          transform="translate(0.11 0.27)"/>
    <path class="cls-17"
          d="M179.86,131.31a52.9,52.9,0,0,0-8.84,3,.58.58,0,0,1-.58-.08.56.56,0,0,1-.22-.54l.31-2a20.62,20.62,0,0,0-6,2.94.66.66,0,0,1-.35.11.56.56,0,0,1-.46-.23.65.65,0,0,1-.09-.16.61.61,0,0,1,.2-.65,21.55,21.55,0,0,1,7.31-3.34.56.56,0,0,1,.52.14.6.6,0,0,1,.17.51l-.28,1.83a48.8,48.8,0,0,1,8.12-2.68.46.46,0,0,1,.26,0,.56.56,0,0,1,.41.44.49.49,0,0,1,0,.34.57.57,0,0,1-.41.34Zm1-3.7a28,28,0,0,0-10.55-2,29.36,29.36,0,0,0-6.85.78,14.83,14.83,0,0,0,.12,8,7.54,7.54,0,0,0,.92,1.84c1.38,2,3.75,3.28,7,3.76a7.49,7.49,0,0,0,1.14.09c5.12,0,7.15-5.81,7.84-8.65a13.25,13.25,0,0,0,.3-1.52l0-.22.17-.14a2.89,2.89,0,0,0,.38-1.71l-.53-.22Z"
          transform="translate(0.11 0.27)"/>
    <path class="cls-12"
          d="M158.64,130.56a.57.57,0,0,1-.36.73,13.05,13.05,0,0,0-2.25,1.12c.09-.49.18-1,.29-1.49a10,10,0,0,1,1.59-.72.56.56,0,0,1,.73.36Z"
          transform="translate(0.11 0.27)"/>
    <path class="cls-12"
          d="M156.32,130.92c-.11.5-.2,1-.29,1.49-.47.28-.92.58-1.31.85.07-.51.16-1,.26-1.56.42-.26.88-.54,1.34-.78Z"
          transform="translate(0.11 0.27)"/>
    <path class="cls-12"
          d="M153.8,131l-.14,1.59c.37-.26.83-.57,1.32-.88-.1.53-.19,1.05-.26,1.56-.81.54-1.39,1-1.4,1a.58.58,0,0,1-.63.05.55.55,0,0,1-.29-.55l.16-1.85a12.11,12.11,0,0,0-2.93,2.64.58.58,0,0,1-.46.22.63.63,0,0,1-.35-.11.68.68,0,0,1-.17-.21.59.59,0,0,1,.06-.6A11.56,11.56,0,0,1,153,130.4a.58.58,0,0,1,.55.08.57.57,0,0,1,.23.51Z"
          transform="translate(0.11 0.27)"/>
    <path class="cls-17"
          d="M158.33,126.29c-.17-.07-.44-.17-.79-.28s-.69-.22-1.11-.33a17.47,17.47,0,0,0-4.21-.54,13.05,13.05,0,0,0-6.22,1.49,4.2,4.2,0,0,0,.51,1.78.57.57,0,0,1,.14.28,29,29,0,0,0,1.8,5.33l.2.42a.59.59,0,0,1,.06-.6A11.56,11.56,0,0,1,153,130.4a.58.58,0,0,1,.55.08.57.57,0,0,1,.23.51l-.14,1.59c.37-.26.83-.57,1.32-.88s.88-.54,1.34-.78a10,10,0,0,1,1.59-.72.56.56,0,0,1,.73.36.57.57,0,0,1-.36.73,13.05,13.05,0,0,0-2.25,1.12c-.47.28-.92.58-1.31.85-.81.54-1.39,1-1.4,1a.58.58,0,0,1-.63.05.55.55,0,0,1-.29-.55l.16-1.85a12.11,12.11,0,0,0-2.93,2.64.58.58,0,0,1-.46.22.63.63,0,0,1-.35-.11.68.68,0,0,1-.17-.21c1.1,2.22,2.84,4.67,5.21,4.67h0l.41,0h.07a7.14,7.14,0,0,0,1.1-.22,4.72,4.72,0,0,0,2.79-2c1.4-2.11,1.43-5.67.1-10.59Z"
          transform="translate(0.11 0.27)"/>
    <path class="cls-18"
          d="M270.18,170.82c-1.51,0-2.79-.75-2.79-1.63s1.28-1.62,2.79-1.62,2.8.74,2.8,1.62-1.28,1.63-2.8,1.63Zm0-4.42c-2.22,0-4,1.23-4,2.79s1.74,2.8,4,2.8,4-1.23,4-2.8-1.74-2.79-4-2.79Z"
          transform="translate(0.11 0.27)"/>
    <g class="cls-19">
        <path class="cls-18"
              d="M268.53,191.91a1.62,1.62,0,0,1-1.53.76,3.36,3.36,0,0,1-1.42-.34c-1.2-.58-1.89-1.76-1.5-2.57a1.61,1.61,0,0,1,1.52-.76,3.32,3.32,0,0,1,1.42.34c1.21.58,1.9,1.76,1.51,2.57Zm-1-3.56a4.45,4.45,0,0,0-1.9-.45,2.68,2.68,0,0,0-2.52,1.38c-.66,1.37.25,3.18,2,4a4.48,4.48,0,0,0,1.9.45,2.66,2.66,0,0,0,2.52-1.38c.66-1.37-.24-3.18-2-4Z"
              transform="translate(0.11 0.27)"/>
        <path class="cls-18"
              d="M241.48,190.25l-.6.14a23.62,23.62,0,0,1,8.86-2.92l-1.3,1.9a25.56,25.56,0,0,0-7,.88Zm10.18,1a5.13,5.13,0,0,1,3.26,3.9,3.61,3.61,0,0,1-1.61,3.45c-3.18,2-7.33.93-11,0l-.41-.11-.64-.16c-4.78-1-8-1.42-13,.22a.58.58,0,0,0-.39.64.59.59,0,0,0,.58.49h.78c2.07,0,4.89-.09,5.48,1.72a2.13,2.13,0,0,1-.38,1.94c-.89,1-2.94,1.36-4.48,1.23l-2.18-.17a47.3,47.3,0,0,0-5.64-.24H222a18.9,18.9,0,0,0-3.93.56q2.19-2.74,4.22-5.75a1.93,1.93,0,0,0,.29-1.78c-.67-1.91-4.48-3.09-8.89-4.46-1.84-.57-3.73-1.16-5.21-1.78,1.9-3.8,5-9.8,8.61-11.8a8.12,8.12,0,0,1,2.17-.9c.71-.14,1,0,1.08.14.48.5.2,2.29-1.11,4.43a.59.59,0,0,0,.93.7c3.94-4.28,8.78-9,15-11.83.37-.17.75-.34,1.13-.49,1.75-.68,5.39-2.08,7.37-1.11a2.72,2.72,0,0,1,1.11,3.46c-.52,1-1.77,2-3.38,3.08a11.82,11.82,0,0,0-3.27,2.86.58.58,0,0,0,.79.82c.86-.52,1.66-1,2.44-1.54s1.71-1.11,2.56-1.61a.6.6,0,0,0,.42-.25,18.34,18.34,0,0,1,7.57-2.56,12.39,12.39,0,0,1,5.42.81l.16.13a.75.75,0,0,0,.26.05,8.1,8.1,0,0,1,2.51,1.71,5.28,5.28,0,0,1,1.55,4.44c-.43,3.47-5.69,4.06-9.52,4.5l-1.52.18-.54.08c-3.42.46-8.4,1.47-12.19,4.81a.57.57,0,0,0-.14.69.58.58,0,0,0,.62.33c1.1-.19,2.18-.43,3.22-.66a22.6,22.6,0,0,1,7.07-.81,11.14,11.14,0,0,1,2.85.65Zm-16,13.62c-24.59,25.56-57.81,41.1-81.86,47.28-5.52,1.42-17.2,2.77-18.24,1-.13-.21.05-.63.5-1.15,23.44-5.49,59.55-20.86,86.25-46.74h0a49.77,49.77,0,0,1,5.32.24l2.19.17c1.65.14,3.95-.16,5.24-1.41a1.45,1.45,0,0,0,.21-.22,3.26,3.26,0,0,0,.63-3l0,0a3.57,3.57,0,0,0-3-2.35,25.89,25.89,0,0,1,7.77.68c-1.63,1.87-3.29,3.7-5,5.48ZM109.27,253a9.25,9.25,0,0,1,2.73-1.45h0c1.32-.21,2.36-.4,3-.52,11.36-2.34,30.55-8.22,50.43-17.76l1.93-.19a74.3,74.3,0,0,0,27.81-8.72,72.24,72.24,0,0,0,6.71-4.2,78.23,78.23,0,0,0,14.87-13.81l.1,0a16.73,16.73,0,0,1,3.63-.87,163.46,163.46,0,0,1-18.37,15c-23,16.25-48.56,26.32-66.54,30.5l-1,.23c-5.14,1.15-23.09,2.92-25.26,1.8Zm-6.08-1.43c-7.93.85-9.38.22-9.63,0,.09-.18.59-.83,3.28-2.17h0c12.61-2,23.25-3.87,51.42-16.21a.6.6,0,0,0,.22-.16,87.46,87.46,0,0,0,9.57.53c1.35,0,2.73,0,4.15-.11-18.8,8.75-36.68,14.18-47.46,16.4-.54.11-1.48.28-2.67.48a.51.51,0,0,0-.32,0l-.07,0c-2.31.38-5.44.83-8.49,1.15Zm-16.75-4.48c-.08-.37.79-1.19,3.49-1.89h0c1.9-.41,3.72-.77,5.63-1.15,9.82-1.93,20-3.94,41.72-13l0,0a69.34,69.34,0,0,0,9,1.77c-27.09,11.77-37.48,13.59-49.87,15.52l-1,.16c-5,.77-8.82-.43-9-1.38Zm2.08-3.44c-.25-.89,1.5-4,12.4-7.76a.56.56,0,0,0,.17-.09l.46-.12a221.8,221.8,0,0,0,37.52-14.2,33.26,33.26,0,0,0-2.51,8.6C115.13,239,105.08,241,95.36,242.88c-1.82.36-3.7.73-5.6,1.14h-.08c-.49.1-1,0-1.16-.41Zm5.7-9.13c-.45-1.44,3.28-5.13,11.22-8,14.88-5.47,34.24-13.35,52.11-25.93.59.28,1.21.53,1.85.76-9.25,5-15.78,11.22-19.52,18.48a222,222,0,0,1-38.64,14.77l-.61.16c-4,1-6.15.62-6.41-.2Zm55.69-45.12c-1.11-5.88,1.33-12.88,5.67-16.27A10.13,10.13,0,0,0,158,170a2.81,2.81,0,0,0,.3-2.05c-.16-.46-.61-1-1.83-1a.59.59,0,1,0,0,1.17c.23,0,.63,0,.7.22a1.12,1.12,0,0,1-.06.68c-3,0-6.39-1.52-8.65-2.5-2-.88-2.77-1.18-3.31-.87a.76.76,0,0,0-.38.58c-.22,1.76-1.2,7.54-4.55,7.87-2.18.22-6.28-3.25-8.59-6.49-1.47-2.07-1.75-3.33-1.54-3.79.83-1.79,6.51-7.08,10.64-8.53a3.53,3.53,0,0,1,2.6-.16c3.55,1.77,13.45,4.21,17,3a8.32,8.32,0,0,0,3.16-2.17,20.77,20.77,0,0,0,10.07,2.51,27.09,27.09,0,0,0,17-6.44,14.88,14.88,0,0,0,5.59,1.31,7.25,7.25,0,0,0,2.35-.36,8.21,8.21,0,0,0,2.29-1.37,12.9,12.9,0,0,0,.63,8.8,9.06,9.06,0,0,0-2.1,1.84,12.84,12.84,0,0,1-2,1.86.59.59,0,0,0-.44.15.58.58,0,0,0-.19.53,56.06,56.06,0,0,1,.48,8.84,54,54,0,0,1-.47,6.33c-.08.6-.18,1.21-.29,1.83-1.18,6.69-3.6,11.88-7.22,15.51a20.64,20.64,0,0,1-9.42,5.36,12.23,12.23,0,0,0,.51-4.07s0-.06,0-.08a12.54,12.54,0,0,0-6.14-7.6.58.58,0,1,0-.56,1,11.61,11.61,0,0,1,5.55,6.79,11.81,11.81,0,0,1-.7,4.34c-2.41,7.3-10.23,16.05-11.61,17.55-8-1.29-14-7-15.12-8.13.88-3.55,6.76-8.74,8.67-10.36l.93-.49a.58.58,0,0,0-.53-1h0a19.4,19.4,0,0,1-3.14-1.21,13.47,13.47,0,0,1-7.78-9.93Zm12.3-35.74c-4.23-3-6.48-7.55-6.75-13.58a6,6,0,0,0,3.75-2.52c1.51-2.28,1.66-5.89.45-10.76a5.06,5.06,0,0,0,1.18.13,6.81,6.81,0,0,0,1.35-.14c-.81,4.27-.36,7.67,1.33,10.12,1.57,2.29,4.2,3.72,7.82,4.26a8.35,8.35,0,0,0,1.31.1c3.24,0,5.88-2,7.64-5.67a20.69,20.69,0,0,0,1.62-5.22c2.08-2.35,6.25-6.83,8.24-7.4.69-.2,2.3,1.58,2.8.78s0-3.63-.54-4.22a.44.44,0,0,0-.15-.1c-.52-.2-1.49.56-1.95.81-1.93,1.06-6.61,5-8.49,6.53a30.73,30.73,0,0,0-19-1.37h0l-.3.09h0a4.38,4.38,0,0,1-3.33-.12l-.06,0-.05,0h0c-.16-.07-.54-.22-1.09-.41q.8-2.56,1.83-5.34l0,0a.56.56,0,0,0,0-.44,8.8,8.8,0,0,0,3.19.64,7,7,0,0,0,.81,0c1.44-.17,2.41-.84,2.66-1.82.7-2.8,3.67-3.92,8.16-3.07a.6.6,0,0,0,.62-.3.59.59,0,0,0-.1-.69,10.16,10.16,0,0,0-3.32-2,10.55,10.55,0,0,0-5.35-.56A25,25,0,0,1,170.5,109c8.4.27,11.35,2.66,14.77,5.41a30.17,30.17,0,0,0,7.15,4.61l.25.1,4.78,1.6a53.4,53.4,0,0,0,1.08,18.93l-.09.14a30.06,30.06,0,0,1-3.2,5.57c-.3.42-.61.84-.94,1.23,1.13-2.4,2.07-5.39,1.5-8a6,6,0,0,0-2.78-3.93,3.46,3.46,0,0,1,1.89-.46.59.59,0,0,0,0-1.17,4.14,4.14,0,0,0-3.23,1.24,4.44,4.44,0,0,0-1,3.17.59.59,0,0,0,.58.53h.06a.57.57,0,0,0,.52-.63,3.68,3.68,0,0,1,.36-1.8,5,5,0,0,1,2.46,3.31c1,4.38-3.17,10.44-3.86,11.41-8,7.15-18.91,9.07-27.05,4.34-.53-.31-1-.64-1.55-1Zm19.16-25.8a2.89,2.89,0,0,1-.38,1.71l-.17.14,0,.22a13.25,13.25,0,0,1-.3,1.52c-.69,2.84-2.72,8.65-7.84,8.65a7.49,7.49,0,0,1-1.14-.09c-3.28-.48-5.65-1.75-7-3.76a7.54,7.54,0,0,1-.92-1.84,14.83,14.83,0,0,1-.12-8,29.36,29.36,0,0,1,6.85-.78,28,28,0,0,1,10.55,2l.53.22Zm-27.51,11.28h0c-2.37,0-4.11-2.45-5.21-4.67l-.2-.42a29,29,0,0,1-1.8-5.33.57.57,0,0,0-.14-.28,4.2,4.2,0,0,1-.51-1.78,13.05,13.05,0,0,1,6.22-1.49,17.47,17.47,0,0,1,4.21.54c.42.11.8.23,1.11.33s.62.21.79.28c1.33,4.92,1.3,8.48-.1,10.59a4.72,4.72,0,0,1-2.79,2,7.14,7.14,0,0,1-1.1.22h-.07l-.41,0Zm2.79-24.1a2.18,2.18,0,0,1-.21-2.12c.69-1.28,3.17-1.79,4.15-1.89a3.87,3.87,0,0,0,.25.55,4.14,4.14,0,0,0,2.37,1.73l.1,0h.18l.09,0h0a9.6,9.6,0,0,1,8.82.08c-3.84-.16-6.47,1.33-7.2,4.22-.11.48-.74.83-1.66.94a7.3,7.3,0,0,1-6.93-3.48Zm3-11.28.05-.11,2.65-5.47c1.62.85,1.8,3,1.82,3.58l-3.13,6a4.89,4.89,0,0,1-1.39-4ZM157.83,99h0l1-4.16a5.89,5.89,0,0,1,2.48,2.73L159,102.4A4.58,4.58,0,0,1,157.83,99Zm-2.76-8.71c3.34,2,2.84,3.68,2.83,3.68a.19.19,0,0,1,0,.07L157,97.4a22.6,22.6,0,0,1-2-7.13ZM169.75,108a20.83,20.83,0,0,0-5.86,3.56l-.64.52a2.8,2.8,0,0,1-1.4-1.11,2.41,2.41,0,0,1-.17-1.91l0-.07,3.39-6.49c1,.15,4,1,4.65,5.5Zm3.87-9.59c1.89-2.08,4.73-3.1,8.42-3,6.46.09,10.62,2.29,13.29,5.25a.58.58,0,0,0,.31.34,18.3,18.3,0,0,1,3.76,8,15,15,0,0,1,.2,2.37c.1,2.8.26,7,3.09,9.28-1.66-.24-3.15-.53-4.49-.85a27.22,27.22,0,0,1-12.2-6.2c-3.39-2.73-6.59-5.31-15.1-5.65a1.1,1.1,0,0,0,0-.18.59.59,0,0,0,.06-.32c0-.06-.54-5.46,2.68-9Zm29.94,5a14.91,14.91,0,0,1,6,6.4,20.63,20.63,0,0,1,1.89,8.75c0,.35,0,.69,0,1a.5.5,0,0,0,0,.32c.07,2.37.21,4.26.33,5.83.39,5.23.5,6.82-3,11-4.87,5.84-4.82,6.72-4.46,13.58l0,.66a4,4,0,0,1,0,.73,8.82,8.82,0,0,1-1.49-2.37.45.45,0,0,0-.11-.23,48.66,48.66,0,0,1-3.11-9.19A51.62,51.62,0,0,1,198.59,121l8.74,1.22h0a.58.58,0,0,0,.58-.54v0a.58.58,0,0,0-.54-.58c-6.3-.47-6.5-5.88-6.66-9.82a14.67,14.67,0,0,0-.22-2.58,20.47,20.47,0,0,0-3.22-7.5,18.41,18.41,0,0,1,6.24,2.22Zm5.68-24.87a18.2,18.2,0,0,0,3.85.39,21.08,21.08,0,0,0,2.13-.11c3.06,16.26,3.58,31.75,1.53,46.05a32,32,0,0,0-4.09-5.36c0-.31,0-.64,0-1a21.58,21.58,0,0,0-1.83-8.78h0a.43.43,0,0,0,.06-.22,145.57,145.57,0,0,0-1.63-31Zm-6.08-6.17c0-1.29.89-2.56,2.51-3.55a.59.59,0,0,0-.21-1.08c-4.35-.64-7.5-3.28-7.5-6.28,0-3.54,4.29-6.43,9.55-6.43a13.37,13.37,0,0,1,3.24.39.57.57,0,0,0,.49-.11.53.53,0,0,0,.23-.44c.08-3.78,4.36-6.85,9.55-6.85s9.55,3.12,9.55,7a5.09,5.09,0,0,1-.23,1.49.57.57,0,0,0,.08.49.59.59,0,0,0,.42.26,14.18,14.18,0,0,1,8.61,3.92.6.6,0,0,0,.48.17.61.61,0,0,0,.43-.28c1.7-2.85,5.63-4.69,10-4.69,6,0,10.84,3.41,10.84,7.6a6,6,0,0,1-1.55,3.91.59.59,0,0,0-.09.62.6.6,0,0,0,.54.34c5.76,0,10.45,3.12,10.45,7a5.25,5.25,0,0,1-1.4,3.46.62.62,0,0,0-.12.54.55.55,0,0,0,.38.39c2.59.87,4.26,2.87,4.26,5.09,0,3.05-3.12,5.53-6.95,5.53a9.39,9.39,0,0,1-1.19-.08c-3.27-.45-5.76-2.72-5.76-5.45a4.43,4.43,0,0,1,.36-1.73.61.61,0,0,0,0-.54.56.56,0,0,0-.47-.26l-.65,0h0a.58.58,0,0,0-.39.15.53.53,0,0,0-.19.41,7.25,7.25,0,0,1-4.12,6,9.69,9.69,0,0,1-8.38.17A7.36,7.36,0,0,1,241.35,83a.58.58,0,0,0-.49-.56,14.44,14.44,0,0,1-5.93-2.29A9.25,9.25,0,0,1,232.65,78a.58.58,0,0,0-.58-.24,16,16,0,0,1-3,.28,16.18,16.18,0,0,1-5.14-.82,15.07,15.07,0,0,1-2.79-1.29.61.61,0,0,0-.61,0,13,13,0,0,1-4.76,1.65.41.41,0,0,0-.19,0l-.13,0a18.1,18.1,0,0,1-2.36.16,16.74,16.74,0,0,1-4.29-.55c-3.31-.89-5.64-2.75-5.64-4.85Zm4.14,118-.14,0a23.16,23.16,0,0,0-2.88-7.38,112.77,112.77,0,0,0,13.62-22.22,4.28,4.28,0,0,0,2.32-.19c2.84-1.08,4.94-6.82,5.52-10.55.3-1.86.41-4.26-.74-5.18a5.68,5.68,0,0,0-1-.62c5.49-19.73,5.68-41.8.54-65.61a17.65,17.65,0,0,0,4.56.59,17,17,0,0,0,2.85-.23,10.31,10.31,0,0,0,2.06,2h0c8,36.85,2.79,69.22-15.39,96.21a.05.05,0,0,0,0,0,10.71,10.71,0,0,0-2,.9c-4,2.17-7.15,8.41-9.12,12.34l-.1-.06Zm-9.66-8.47c.08-.44.15-.88.22-1.32a10.65,10.65,0,0,1,4.26,1.54,8.24,8.24,0,0,1,.89,1,21.41,21.41,0,0,1,3.1,7.88,76.19,76.19,0,0,1,1.42,15.6c-6.81,4.36-15.05,4.11-16.7,4-1.11-2.12-1.3-6.87-.52-12.85v-.05c3.66-3.81,6.14-9.14,7.33-15.85Zm20-22.44c-2.44-.78-4.69-3.89-5.46-5a.86.86,0,0,0-.54-.36c-.64-.12-1.47.42-3.29,1.67l-1.12.77a58.77,58.77,0,0,1,7.73-8.73,18.85,18.85,0,0,0,3.33-4.25l.11,0A28.05,28.05,0,0,1,223,145a6.65,6.65,0,0,1,1.25.69c.39.32.72,1.58.32,4.09-.62,3.93-2.74,8.86-4.79,9.64a3.21,3.21,0,0,1-2.12,0ZM206,158.59a.59.59,0,0,0,.31-.09h0c-.32.66-.66,1.31-1,2a8.34,8.34,0,0,1,.69-1.88Zm-3.13,22.67-.06,0a11.54,11.54,0,0,0-4.82-1.78c.23-1.92.35-3.77.39-5.48h0a.12.12,0,0,0,.05-.05,114.77,114.77,0,0,0,6.29-9.91,1,1,0,0,0,.41.09.67.67,0,0,0,.43-.14.68.68,0,0,0,.19-.8,3.53,3.53,0,0,0-.17-.33c0-.06-.07-.12-.1-.19q1.34-2.45,2.53-4.92a.55.55,0,0,0,.05-.33c.34-.22.66-.44,1-.65a17.6,17.6,0,0,1,2.32-1.45c1,1.51,3,4.09,5.41,5.12A111.68,111.68,0,0,1,203.56,182a9.25,9.25,0,0,0-.66-.72ZM223.23,78.18c5.23,23.8,5.11,45.85-.34,65.54a30.09,30.09,0,0,0-4-1.24,15.07,15.07,0,0,0,1.42-6.31,21.13,21.13,0,0,0-2.72-9.88.58.58,0,0,0,.19-.36c2.22-14.67,1.75-30.59-1.39-47.3a14,14,0,0,0,4.46-1.55,16.71,16.71,0,0,0,2.39,1.1ZM202.37,150.6a6.74,6.74,0,0,0,1.59,2.13,1.16,1.16,0,0,0,.65.23.93.93,0,0,0,.43-.11c.46-.26.64-.88.58-2l0-.66c-.36-6.73-.39-7.28,4.18-12.77,3.76-4.51,3.62-6.5,3.22-11.8-.09-1.21-.19-2.63-.27-4.31,2.08,2.44,6.44,8.34,6.41,14.86a13.63,13.63,0,0,1-1.59,6.37,17.11,17.11,0,0,1-3.36,4.41c-5,4.87-7.66,8.28-9,10.7-1.14,2.1-1.29,3.47-1.13,4.39a8.14,8.14,0,0,1-1.24-1.7c-1-1.86-1.92-5-.47-9.74Zm-10.69.48a30.67,30.67,0,0,0,4.51-5,32.53,32.53,0,0,0,2.78-4.62,47.09,47.09,0,0,0,2.74,7.83,11.13,11.13,0,0,1-3.47,2.53c-2.27.77-5.2-.16-6.57-.7v0ZM198,165a12.37,12.37,0,0,0,2.29-2,12.93,12.93,0,0,1,1.72-1.6l.12,0a9.27,9.27,0,0,0,1.66,2c-1.65,2.91-3.43,5.77-5.35,8.55A60.37,60.37,0,0,0,198,165Zm18.06,40.28a74.9,74.9,0,0,1-21.44,18,73.26,73.26,0,0,1-27.35,8.59l-1.66.17a.57.57,0,0,0-.46,0l0,0a86,86,0,0,1-17-.27,71.32,71.32,0,0,1-10.38-1.93,32,32,0,0,1,3-9.35c3-6,8-11.25,14.89-15.71-2.32,2.36-4.72,5.29-5.13,7.65a.55.55,0,0,0,.15.49c.27.3,6.87,7.38,16.32,8.76h.08a.6.6,0,0,0,.43-.18,85,85,0,0,0,6.6-8.15,41.31,41.31,0,0,0,5.29-9.53h.16A22,22,0,0,0,189,199c-.44,4-.7,9.78,1,12.5a.61.61,0,0,0,.44.27c.11,0,.85.08,2,.08,3.32,0,10.1-.54,16-4.42a.61.61,0,0,0,.26-.47,83.38,83.38,0,0,0-.51-10.48c-.19-1.71-.43-3.3-.72-4.76a53,53,0,0,0,5.88,2.06c3.41,1.06,7.65,2.38,8.13,3.74a.79.79,0,0,1-.16.74q-2.51,3.71-5.26,7Zm5.12-27.77a1.74,1.74,0,0,0-1.08-.53c17.75-26.82,22.88-58.83,15.27-95.18a16.09,16.09,0,0,0,4.85,1.7A8.51,8.51,0,0,0,245,90.23c5.43,30.06,1.84,57.14-10.64,80.49v0a45.4,45.4,0,0,0-12.82,9.57,2.93,2.93,0,0,0-.38-2.77Zm23-8.53c-2.35-1.16-6.13.22-8.11,1,12-23.1,15.42-49.74,10.23-79.23a10.86,10.86,0,0,0,7.89-.3c6.1,30.08,3.34,57.21-8.2,80.74a3.42,3.42,0,0,0-1.81-2.2Zm13.3,4.93a13.73,13.73,0,0,0-5.67-.79,18.58,18.58,0,0,0-6.45,1.85c13.1-24.59,16.44-53.21,9.91-85.08a8.83,8.83,0,0,0,3.46-3.64c.52,2.68,3,4.84,6.19,5.45,6.61,30.65,4.1,58.3-7.44,82.21Zm-5.06,13.17c4-.45,10-1.13,10.55-5.53a6.55,6.55,0,0,0-1.87-5.39,9.31,9.31,0,0,0-2.55-1.79c11.59-24,14.15-51.79,7.59-82.52l.6,0c4.48,0,8.12-3,8.12-6.7a6.6,6.6,0,0,0-4.3-5.9,6.18,6.18,0,0,0,1.18-3.58c0-4.21-4.61-7.67-10.49-8.08a6.84,6.84,0,0,0,1.14-3.74c0-4.83-5.39-8.76-12-8.76-4.48,0-8.55,1.8-10.62,4.64a15.44,15.44,0,0,0-8.14-3.68,5.63,5.63,0,0,0,.11-1.16c0-4.48-4.8-8.12-10.71-8.12-5.51,0-10.1,3.21-10.66,7.29a14.89,14.89,0,0,0-2.85-.27c-5.91,0-10.72,3.4-10.72,7.59,0,3.25,2.94,6.12,7.15,7.17A5,5,0,0,0,202,72.35c0,2.6,2.42,4.79,6,5.86a146.41,146.41,0,0,1,1.78,29.63c-4.2-6.72-11.77-7.82-13.52-8-2.84-3.2-7.29-5.58-14.21-5.68-4.05-.07-7.18,1.09-9.31,3.42a12.25,12.25,0,0,0-2.91,7,6.39,6.39,0,0,0-4.52-3.22c-.1-1.12-.59-3.66-3-4.47a6.66,6.66,0,0,0-3.24-3.24c0-1-.62-2.93-4.27-4.83a.5.5,0,0,0-.53-.31c-.12,0-.54.06-.57.66a.56.56,0,0,0,.07.32q0,.09,0,.21c.2,1.63.8,6.52,2.84,9.31-.25,2.14,1.29,4,1.84,4.61-.48,2.51,1.4,4.64,2,5.26a4.45,4.45,0,0,0-.12,1c-.78.1-4,.58-5,2.48a3.28,3.28,0,0,0,.2,3.23,7.61,7.61,0,0,0,3.38,3.17.62.62,0,0,0-.36.35l0,0c-.7,1.88-1.33,3.68-1.86,5.43a18.21,18.21,0,0,0-4.54-.59,14,14,0,0,0-7.13,1.83.6.6,0,0,0-.3.54,6.49,6.49,0,0,0,.74,2.73c.31,1.35,2.73,11.2,8.33,11.21h0a3.25,3.25,0,0,0,.44,0c.31,6.32,2.71,11.07,7.23,14.33.33.24.67.47,1,.68A6.63,6.63,0,0,1,160,157c-3,1.06-12.5-1.09-16.11-2.89a4.52,4.52,0,0,0-3.51.11c-4.19,1.46-10.28,6.92-11.31,9.13-.61,1.33.56,3.43,1.65,5,2.12,3,6.34,7,9.34,7h.32c3.9-.39,5.16-5.82,5.54-8.52.46.13,1.33.51,2.12.85,2.21,1,5.47,2.38,8.55,2.57a9,9,0,0,1-1.75,2.05c-4.67,3.64-7.3,11.13-6.11,17.41a14.72,14.72,0,0,0,7.61,10.33C138.75,212.22,119.71,220,105,225.35c-7.62,2.81-12.75,6.88-11.92,9.49.31,1,1.34,1.53,3,1.61-8.87,3.74-8.94,6.61-8.69,7.48a1.61,1.61,0,0,0,.39.7c-1.87.73-2.71,1.62-2.49,2.66.32,1.57,3.29,2.56,7,2.56.5,0,1,0,1.52-.06-1.19.83-1.59,1.51-1.37,2.16.32.93,2.18,1.21,4.38,1.21a60.93,60.93,0,0,0,6.13-.42c1.9-.2,3.84-.45,5.61-.7a1.18,1.18,0,0,0-.5,1.25c.15.46.38,1.2,5,1.2,1.71,0,4-.1,7.17-.35,5.65-.46,11.7-1.26,14.18-1.76a1.56,1.56,0,0,0,.09,1.4c.62,1,2.68,1.37,5.26,1.37a75.92,75.92,0,0,0,14.27-1.89c26-6.69,62.74-24.27,87.85-53.59l.1,0c3.7,1,8.31,2.14,11.94-.16a4.75,4.75,0,0,0,2.12-4.56,6.22,6.22,0,0,0-4-4.83,12.47,12.47,0,0,0-2.31-.63c.51-.74,1-1.51,1.52-2.27l1.14-.13Z"
              transform="translate(0.11 0.27)"/>
        <path class="cls-18"
              d="M241.28,45.14c1.38,0,2.54.81,2.54,1.76s-1.16,1.75-2.54,1.75-2.53-.8-2.53-1.75,1.16-1.76,2.53-1.76Zm0,4.68c2,0,3.7-1.31,3.7-2.92S243.32,44,241.28,44s-3.7,1.32-3.7,2.93,1.66,2.92,3.7,2.92Z"
              transform="translate(0.11 0.27)"/>
    </g>
    <path class="cls-18"
          d="M204.91,46.44c1.38,0,2.53.8,2.53,1.75S206.29,50,204.91,50s-2.53-.8-2.53-1.76,1.16-1.75,2.53-1.75Zm0,4.68c2,0,3.7-1.31,3.7-2.93s-1.66-2.92-3.7-2.92-3.7,1.31-3.7,2.92,1.66,2.93,3.7,2.93Z"
          transform="translate(0.11 0.27)"/>
    <path class="cls-18"
          d="M191.92,68.52c1.51,0,2.8.75,2.8,1.63s-1.29,1.62-2.8,1.62-2.79-.74-2.79-1.62,1.28-1.63,2.79-1.63Zm0,4.42c2.22,0,4-1.23,4-2.79s-1.74-2.79-4-2.79-4,1.22-4,2.79,1.74,2.79,4,2.79Z"
          transform="translate(0.11 0.27)"/>
    <path class="cls-18"
          d="M168.63,149h.09a.59.59,0,0,0,.58-.49,2.46,2.46,0,0,1,.92-1.52,2.24,2.24,0,0,1,1.87-.18.58.58,0,1,0,.29-1.13,3.37,3.37,0,0,0-2.81.34,3.63,3.63,0,0,0-1.42,2.32.58.58,0,0,0,.48.66Z"
          transform="translate(0.11 0.27)"/>
</svg>