<?xml version="1.0" standalone="no"?><!DOCTYPE svg PUBLIC "-//W3C//DTD SVG 1.1//EN"
        "http://www.w3.org/Graphics/SVG/1.1/DTD/svg11.dtd">
<svg xmlns:xlink="http://www.w3.org/1999/xlink" t="1509004956673" class="icon" style="" viewBox="0 0 1024 1024"
     version="1.1" xmlns="http://www.w3.org/2000/svg" p-id="2563" width="200" height="200">
    <defs>
        <style type="text/css"></style>
    </defs>
    <path d="M956.709943 578.838268l0 197.263759c0 33.518395-27.175943 60.696384-60.695361 60.696384L122.135176 836.798411c-33.518395 0-60.695361-27.179013-60.695361-60.696384L61.439816 578.838268c33.518395 0 60.695361-27.177989 60.695361-60.695361 0-33.521464-27.176966-60.696384-60.695361-60.696384L61.439816 245.008156c0-33.518395 27.176966-60.695361 60.695361-60.695361l773.878382 0c33.520441 0 60.695361 27.176966 60.695361 60.695361l0 212.437343c-33.521464 0-60.695361 27.175943-60.695361 60.696384C896.013559 551.660278 923.188478 578.838268 956.709943 578.838268zM349.747127 320.879148l-30.348192 0 0 364.178303 30.348192 0L349.747127 320.879148zM562.540581 394.260435c8.859785-9.120728 20.74344-13.684674 35.563984-13.684674 13.839193 0 25.103748 4.111644 33.742499 12.349259 8.637728 8.226359 13.440104 19.346627 14.432711 33.372062l46.929846 0c-1.453095-24.783453-8.566096-45.025473-21.253046-60.762899-12.71458-15.730263-29.589922-25.213241-50.617841-28.480658l0-52.080146-43.773969 0 0 51.582819c-23.472598 4.245697-41.936111 15.003715-55.389518 32.276101-13.433964 17.277502-20.155039 38.874379-20.155039 64.807005 0 23.791869 7.040347 43.106774 21.160949 57.94676 14.07967 14.826684 36.039821 26.066679 65.883523 33.727149 1.956561 0.490164 4.875031 1.245364 8.803503 2.208295 23.946388 5.703909 39.771819 14.818497 47.418986 27.384697 2.294252 3.748371 4.046153 8.223289 5.27412 13.441127 1.215688 5.215792 1.838881 10.93505 1.838881 17.129122 0 17.425881-5.098111 31.370475-15.292288 41.787732-10.19827 10.446933-23.843034 15.677051-40.958854 15.677051-18.7439 0-33.044604-4.920056-42.899042-14.684444-9.854439-9.795087-15.307637-24.376177-16.271592-43.773969l-45.231157 0c0.168846 28.851095 7.950066 52.606125 23.351847 71.26202 15.406898 18.672268 36.226063 29.815049 62.467727 33.402761l0 60.131519 43.773969 0 0-62.591547c23.472598-3.2623 42.573631-14.833847 57.332776-34.70543 14.742772-19.900236 22.122857-44.100404 22.122857-72.625064 0-22.494317-6.046716-41.831734-18.078751-57.954947-12.092409-16.131399-29.754674-28.354791-53.079916-36.676317-6.681166-2.437515-16.372899-5.053086-29.102828-7.80885-21.339004-4.734838-35.267225-10.929934-41.789779-18.590404-3.258207-3.748371-5.65786-7.90504-7.213285-12.477172-1.558495-4.549619-2.328022-9.602705-2.328022-15.159258C549.201785 415.531901 553.648051 403.39549 562.540581 394.260435z"
          p-id="2564" fill="#002d72"></path>
</svg>