<?xml version="1.0" standalone="no"?><!DOCTYPE svg PUBLIC "-//W3C//DTD SVG 1.1//EN"
        "http://www.w3.org/Graphics/SVG/1.1/DTD/svg11.dtd">
<svg xmlns:xlink="http://www.w3.org/1999/xlink" t="1509084814559" class="icon" style="" viewBox="0 0 1723 1024"
     version="1.1" xmlns="http://www.w3.org/2000/svg" p-id="2040" width="336.5234375" height="200">
    <defs>
        <style type="text/css"></style>
    </defs>
    <path d="M1352.26106 0H221.140834c-64.638194 0-117.138664 52.50047-117.138664 117.138664v789.626341c0 64.734525 52.50047 117.234995 117.138664 117.234995H1352.164729c64.734525 0 117.138664-52.50047 117.138664-117.138664V117.138664c0.096331-64.734525-52.404139-117.138664-117.042333-117.138664z m-505.834807 725.373471h-546.197554c-14.160677 0-25.624083-11.463405-25.624083-25.624082 0-14.160677 11.463405-25.624083 25.624083-25.624083h546.197554c14.160677 0 25.624083 11.463405 25.624083 25.624083 0 14.160677-11.463405 25.624083-25.624083 25.624082z m0-204.896331h-546.197554c-14.160677 0-25.624083-11.463405-25.624083-25.624083 0-14.160677 11.463405-25.624083 25.624083-25.624082h546.197554c14.160677 0 25.624083 11.463405 25.624083 25.624082 0 14.257008-11.463405 25.624083-25.624083 25.624083z m0-204.8h-546.197554c-14.160677 0-25.624083-11.463405-25.624083-25.624083 0-14.160677 11.463405-25.624083 25.624083-25.624082h546.197554c14.160677 0 25.624083 11.463405 25.624083 25.624082 0 14.257008-11.463405 25.624083-25.624083 25.624083z m452.274694 460.848166H957.399724c-23.504798 0-42.674694-19.073565-42.674694-42.674695 0-90.454939 56.73904-167.423518 136.404892-198.442144-55.294073-28.225024-93.730198-85.156726-93.730198-151.43255 0-94.115522 76.583255-170.698777 170.698777-170.698777s170.698777 76.583255 170.698777 170.698777c0 66.275823-38.436124 123.207526-93.730197 151.43255 79.665851 31.018627 136.404892 107.987206 136.404892 198.442144-0.096331 23.601129-19.169897 42.674694-42.771026 42.674695z"
          p-id="2041" fill="#37b8df"></path>
</svg>