<svg xmlns:xlink="http://www.w3.org/1999/xlink" xmlns="http://www.w3.org/2000/svg" viewBox="0 0 360.35 299.67">
    <defs>
        <style>
            .cls-1{isolation:isolate;}.cls-2{fill:url(#radial-gradient);}.cls-11,.cls-3{fill:#fff;}.cls-3{opacity:0.4;}.cls-4{fill:url(#radial-gradient-2);}.cls-5{fill:url(#radial-gradient-3);}.cls-6{mix-blend-mode:multiply;}.cls-7{fill:#6d6d6d;}.cls-8{fill:url(#radial-gradient-4);}.cls-9{opacity:0.25;}.cls-10{fill:url(#radial-gradient-5);}.cls-11{font-size:23.85px;font-family:Roboto-Bold,
            Roboto;font-weight:700;}.cls-12{letter-spacing:-0.03em;}.cls-13{letter-spacing:0.01em;}.cls-14{letter-spacing:-0.03em;}
        </style>
        <radialGradient id="radial-gradient" cx="91.43" cy="424.82" r="133.47"
                        gradientTransform="translate(60.53 -343.17) scale(1.31 1.16)" gradientUnits="userSpaceOnUse">
            <stop offset="0" stop-color="#ffc119"/>
            <stop offset="0.66" stop-color="#fdbe16"/>
            <stop offset="1" stop-color="#f7a91b"/>
        </radialGradient>
        <radialGradient id="radial-gradient-2" cx="156.34" cy="176.43" r="64.53" gradientUnits="userSpaceOnUse">
            <stop offset="0" stop-color="#ea1e30"/>
            <stop offset="0.26" stop-color="#e71e2f"/>
            <stop offset="0.47" stop-color="#dc1e2d"/>
            <stop offset="0.67" stop-color="#cb1e2a"/>
            <stop offset="0.86" stop-color="#b31d25"/>
            <stop offset="0.99" stop-color="#9c1d20"/>
        </radialGradient>
        <radialGradient id="radial-gradient-3" cx="203.32" cy="128.44" r="63.2" gradientUnits="userSpaceOnUse">
            <stop offset="0" stop-color="#0777bc"/>
            <stop offset="0.27" stop-color="#0870b4"/>
            <stop offset="0.69" stop-color="#0c5ea0"/>
            <stop offset="1" stop-color="#104c8b"/>
        </radialGradient>
        <radialGradient id="radial-gradient-4" cx="156.34" cy="127.87" r="71.01" xlink:href="#radial-gradient-2"/>
        <radialGradient id="radial-gradient-5" cx="203.32" cy="173.34" r="71.01" xlink:href="#radial-gradient-3"/>
    </defs>
    <title>资源 1</title>
    <g class="cls-1">
        <g id="图层_2" data-name="图层 2">
            <g id="图层_1-2" data-name="图层 1">
                <rect class="cls-2" width="360.35" height="299.67"/>
                <polygon class="cls-3"
                         points="182.72 67.89 185.99 21.66 186.13 68 191.32 21.95 189.52 68.26 196.64 22.47 192.91 68.66 201.94 23.21 196.27 69.2 207.2 24.17 199.6 69.88 212.41 25.34 202.91 70.7 217.57 26.74 206.18 71.66 222.66 28.35 209.4 72.75 227.69 30.17 212.58 73.98 232.63 32.2 215.7 75.34 237.49 34.44 218.76 76.83 242.24 36.88 221.76 78.45 246.9 39.51 224.69 80.19 251.43 42.34 227.54 82.05 255.84 45.35 230.31 84.03 260.13 48.55 233 86.12 264.27 51.92 235.6 88.33 268.27 55.47 238.1 90.64 272.12 59.17 240.5 93.05 275.81 63.04 242.8 95.57 279.34 67.06 244.99 98.17 282.69 71.22 247.07 100.87 285.87 75.52 249.04 103.65 288.86 79.95 250.89 106.51 291.67 84.5 252.61 109.44 294.28 89.16 254.22 112.45 296.7 93.93 255.69 115.52 298.91 98.79 257.04 118.65 300.92 103.74 258.25 121.83 302.72 108.78 259.33 125.06 304.3 113.88 260.27 128.33 305.68 119.05 261.08 131.64 306.83 124.27 261.74 134.98 307.76 129.53 262.27 138.35 308.48 134.82 262.65 141.73 308.97 140.15 262.89 145.13 309.23 145.49 262.99 148.53 309.28 150.83 262.95 151.94 309.1 156.17 262.76 155.34 308.69 161.5 262.43 158.73 308.07 166.81 261.96 162.1 307.22 172.09 261.35 165.45 306.15 177.32 260.6 168.78 304.86 182.51 259.71 172.06 303.36 187.64 258.69 175.31 301.64 192.7 257.52 178.51 299.72 197.69 256.23 181.66 297.58 202.59 254.81 184.76 295.24 207.39 253.25 187.79 292.71 212.1 251.57 190.75 289.98 216.69 249.77 193.64 287.05 221.17 247.85 196.45 283.95 225.52 245.81 199.18 280.66 229.73 243.66 201.82 277.2 233.81 241.41 204.37 273.58 237.73 239.04 206.83 269.79 241.5 236.58 209.18 265.85 245.11 234.02 211.42 261.75 248.55 231.37 213.56 257.52 251.82 228.63 215.59 253.16 254.9 225.81 217.49 248.67 257.8 222.91 219.28 244.06 260.51 219.94 220.95 239.35 263.03 216.9 222.49 234.53 265.34 213.8 223.9 229.62 267.45 210.64 225.18 224.63 269.36 207.44 226.32 219.56 271.05 204.18 227.33 214.42 272.53 200.89 228.21 209.23 273.79 197.57 228.94 203.99 274.84 194.21 229.54 198.7 275.66 190.84 229.99 193.39 276.26 187.45 230.3 188.06 276.64 184.05 230.47 182.72 276.8 180.64 230.5 177.38 276.73 177.24 230.39 172.04 276.44 173.84 230.13 166.72 275.92 170.46 229.73 161.43 275.18 167.09 229.19 156.17 274.23 163.76 228.51 150.95 273.05 160.45 227.69 145.79 271.65 157.19 226.73 140.7 270.04 153.96 225.64 135.67 268.22 150.78 224.41 130.73 266.19 147.66 223.05 125.88 263.95 144.6 221.56 121.12 261.51 141.6 219.94 116.47 258.88 138.67 218.2 111.93 256.05 135.82 216.34 107.52 253.04 133.05 214.36 103.23 249.84 130.36 212.27 99.09 246.47 127.77 210.06 95.09 242.92 125.27 207.75 91.24 239.22 122.86 205.34 87.55 235.35 120.56 202.82 84.02 231.33 118.37 200.22 80.67 227.17 116.29 197.52 77.49 222.87 114.32 194.74 74.5 218.44 112.47 191.88 71.69 213.9 110.75 188.95 69.08 209.23 109.15 185.94 66.67 204.47 107.67 182.87 64.45 199.6 106.33 179.74 62.44 194.65 105.11 176.56 60.65 189.61 104.03 173.33 59.06 184.51 103.09 170.06 57.69 179.34 102.29 166.75 56.53 174.13 101.62 163.41 55.6 168.86 101.1 160.04 54.89 163.57 100.71 156.66 54.4 158.24 100.47 153.26 54.13 152.91 100.37 149.86 54.09 147.56 100.42 146.45 54.27 142.22 100.6 143.05 54.67 136.89 100.93 139.66 55.3 131.58 101.4 136.29 56.14 126.31 102.01 132.94 57.21 121.07 102.76 129.62 58.5 115.88 103.65 126.33 60 110.75 104.68 123.08 61.72 105.69 105.84 119.88 63.65 100.7 107.13 116.73 65.78 95.8 108.56 113.64 68.12 91 110.11 110.6 70.66 86.29 111.79 107.64 73.39 81.7 113.59 104.75 76.31 77.22 115.51 101.94 79.41 72.87 117.55 99.21 82.7 68.66 119.7 96.57 86.16 64.58 121.96 94.02 89.79 60.66 124.32 91.56 93.58 56.89 126.78 89.21 97.52 53.28 129.34 86.97 101.61 49.84 132 84.83 105.84 46.57 134.73 82.81 110.2 43.49 137.56 80.9 114.69 40.59 140.45 79.11 119.3 37.88 143.43 77.44 124.02 35.36 146.46 75.91 128.83 33.05 149.56 74.5 133.74 30.94 152.72 73.22 138.74 29.03 155.93 72.07 143.81 27.34 159.18 71.06 148.94 25.86 162.47 70.19 154.14 24.6 165.8 69.45 159.38 23.55 169.15 68.86 164.66 22.73 172.52 68.4 169.97 22.13 175.91 68.09 175.3 21.75 179.32 67.92 180.64 21.59 182.72 67.89"/>
                <path class="cls-4"
                      d="M226,188.54c4.34,1.87,7.87,6.63,7.87,10.64v21.26c0,4-3.42,4.63-7.87,3.88L86.86,194.74c-4.62-1.73-8-3.64-8-7.66V136.67c0-4,3.53-9.92,7.87-8Z"/>
                <path class="cls-5"
                      d="M273,106.33,133.67,84.23c-4.71-.76-7.87-.13-7.87,3.87v45.13h25v.29L273,172.58c4.34,1.87,7.86-4,7.86-8.05V114.12C280.84,110.11,278,107.6,273,106.33Z"/>
                <g class="cls-6">
                    <polygon class="cls-7" points="270.7 111.23 182.11 133.5 200.51 141.41 270.7 111.23"/>
                </g>
                <path class="cls-8"
                      d="M226,131c4.34-1.87,7.87-6.64,7.87-10.64V68.65c0-4-3.53-5.74-7.87-3.87L86.69,124.69c-4.34,1.87-7.87,6.64-7.87,10.64v51.75c0,4,3.53,5.75,7.87,3.88Z"/>
                <g class="cls-6">
                    <polygon class="cls-7" points="88.97 189.98 177.55 167.7 159.16 159.79 88.97 189.98"/>
                </g>
                <path class="cls-9" d="M193.85,191.71v-2.57a10.49,10.49,0,0,0-2.07-5.78L142.1,204.72Z"/>
                <path class="cls-10"
                      d="M133.67,170.16c-4.35,1.87-7.87,6.64-7.87,10.64v51.76c0,4,3.52,5.74,7.87,3.87L273,176.52c4.34-1.88,7.86-6.64,7.86-10.65V114.12c0-4-3.52-5.74-7.86-3.87Z"/>
                <text class="cls-11" transform="translate(125.09 144.96)">STUDEN
                    <tspan class="cls-12" x="90.86" y="0">T</tspan>
                    <tspan x="12.38" y="28.62">TICK</tspan>
                    <tspan class="cls-13" x="64.83" y="28.62">E</tspan>
                    <tspan class="cls-14" x="78.48" y="28.62">T</tspan>
                </text>
            </g>
        </g>
    </g>
</svg>