<svg xmlns="http://www.w3.org/2000/svg" viewBox="0 0 691.47 108.39">
    <defs>
        <style>.cls-1{fill:#231815;}.cls-2{fill:#fdd000;}</style>
    </defs>
    <title>资源 1</title>
    <g id="图层_2" data-name="图层 2">
        <g id="图层_1-2" data-name="图层 1">
            <path class="cls-1"
                  d="M296.14,88.44l0-.14c1.94-11,11.39-20.09,22.62-20.09,12.89,0,17,10,15.1,21-.15.86-.4,1.87-.65,2.88H306.38c.2,5,3.2,7.56,8.1,7.56,3.67,0,6.54-1.15,10.06-4l5.28,5.54a23.17,23.17,0,0,1-17,7.21C301.19,108.39,294.06,100.25,296.14,88.44Zm27.79-3.24c.22-4.9-2.08-8.21-6.69-8.21s-8.06,3.24-9.8,8.21Z"/>
            <polygon class="cls-1" points="219.53 107.52 208.44 107.52 215.24 68.92 226.33 68.92 219.53 107.52"/>
            <polygon class="cls-1" points="227.08 64.68 215.99 64.68 217.71 54.96 228.79 54.96 227.08 64.68"/>
            <path class="cls-1" d="M257.38,86.49a3.48,3.48,0,0,1-.1.44l.16-.88C257.42,86.2,257.41,86.34,257.38,86.49Z"/>
            <path class="cls-1" d="M281.28,86.49a.87.87,0,0,1,0,.22l.08-.44A1.66,1.66,0,0,1,281.28,86.49Z"/>
            <polygon class="cls-1"
                     points="210.27 57.12 168.51 57.12 166.71 67.34 182.04 67.34 174.94 107.59 186.03 107.59 193.13 67.34 208.47 67.34 210.27 57.12"/>
            <polygon class="cls-1"
                     points="34.07 96.43 13.04 96.43 19.98 57.12 8.89 57.12 1.96 96.43 1.96 96.43 0 107.52 0 107.52 0 107.52 11.09 107.52 11.09 107.52 32.12 107.52 34.07 96.43"/>
            <polygon class="cls-1" points="50.77 107.52 39.68 107.52 46.49 68.92 57.58 68.92 50.77 107.52"/>
            <polygon class="cls-1" points="58.32 64.68 47.23 64.68 48.95 54.96 60.04 54.96 58.32 64.68"/>
            <polygon class="cls-1"
                     points="129.15 84.12 146.52 68.92 133.41 68.92 118.29 82.81 123.2 54.96 123.06 54.96 112.11 54.96 102.85 107.52 113.79 107.52 113.94 107.52 116.03 95.63 120.39 91.75 127.69 107.52 140.22 107.52 129.15 84.12"/>
            <path class="cls-1"
                  d="M99.55,83.67l-4.21,23.86H84.25l3.69-20.92A5.38,5.38,0,0,0,82.52,80H75.93l-4.85,27.51H60l6.81-38.6H87.41a14.13,14.13,0,0,1,3.57.45A11.7,11.7,0,0,1,99.74,80,14.65,14.65,0,0,1,99.55,83.67Z"/>
            <path class="cls-1"
                  d="M291.49,83.72l-4.21,23.88H276.19l3.68-20.89a1.74,1.74,0,0,0,.05-.22,1.66,1.66,0,0,0,0-.22,5.21,5.21,0,0,0-5.31-6.2h-6.42l-4.85,27.53H252.28l3.64-20.67c0-.15.07-.29.1-.44s0-.29.06-.44a5.21,5.21,0,0,0-5.35-6h-6.42l-4.85,27.53H228.38L235.19,69h44.16a14.19,14.19,0,0,1,3.57.45,11.7,11.7,0,0,1,8.76,10.64A14.68,14.68,0,0,1,291.49,83.72Z"/>
            <path class="cls-2"
                  d="M167.17,15.3a299,299,0,0,1,131,30,211.93,211.93,0,0,0-261.93,0A299,299,0,0,1,167.17,15.3Z"/>
            <path class="cls-1"
                  d="M406.41,91.25l.19.07,3.34-3.23-.19-.2c-3.88-4-7.66-8.21-11.24-12.39l-.16-.19-6.7,4.88.17.23A31.79,31.79,0,0,0,406.41,91.25Z"/>
            <path class="cls-1"
                  d="M441.34,99.58a32.67,32.67,0,0,1-9.31-5,19.5,19.5,0,0,1-5.18-6q-.17-.36-.33-.69c-.91-1.84-1.63-3.29-1-7.89.1-.83.81-5,.82-5l0-.3h-8.62l-.9,5.13a19.8,19.8,0,0,1-3.1,7.31,28.24,28.24,0,0,1-7.05,6.56A55.13,55.13,0,0,1,395,99.22c-3.35,1.09-6.83,2.09-10.34,3l-.23.06-.9,5.08.37-.07c3.19-.61,6-1.23,9.41-2.09a99.82,99.82,0,0,0,11.25-3.7,53.71,53.71,0,0,0,8.73-4.33,29.54,29.54,0,0,0,5.59-4.76,20.31,20.31,0,0,0,4.75,5.29,31.94,31.94,0,0,0,7,4.38,51.92,51.92,0,0,0,7,2.61A96.23,96.23,0,0,0,449,107.18l.33.06.88-5-.23,0A68.1,68.1,0,0,1,441.34,99.58Z"/>
            <path class="cls-1"
                  d="M445.07,75.43C440,79.73,434.75,84,429.58,88l-.26.2,2.29,3.14.2-.07a52.77,52.77,0,0,0,18.74-11l.28-.25-5.54-4.79Z"/>
            <path class="cls-1"
                  d="M443.19,55.85H400.14L399,62.13h43.06l-.47,2.66a3.31,3.31,0,0,1-3.13,2.66H396.26l-1.11,6.28h45.19a22.64,22.64,0,0,0,3-.22,10.9,10.9,0,0,0,3.25-1,7.63,7.63,0,0,0,2.23-2A8.91,8.91,0,0,0,450,67.75l4.14-23.5H400.34l-1.13,6.35h44.91Z"/>
            <path class="cls-1"
                  d="M508.28,94.83a15.23,15.23,0,0,0-5.71-2.58l-.16,0L499.36,95l.16.2c2.17,2.69,4.43,5.63,6.62,8.47l1.07,1.39,5.49-5.23-.12-.19A18.08,18.08,0,0,0,508.28,94.83Z"/>
            <path class="cls-1"
                  d="M529,100.75l-1.12,6.38-.41-.29a42.66,42.66,0,0,1-17.11-27.32,66.21,66.21,0,0,1-11.72,15.07A106,106,0,0,1,482,107.13l-.28.18-1.94-4.18.24-.16a76.21,76.21,0,0,0,17.47-17.42,68.93,68.93,0,0,0,10.58-23H495.26l1.19-6.73h13l2.67-15.13h9.23l-2.67,15.13h16.5L534,62.5H517.53a55.83,55.83,0,0,0,2.92,22.9A48.53,48.53,0,0,0,529,100.75Z"/>
            <path class="cls-1"
                  d="M488.31,93.25l.16-.11-.19-5.22-8.47,4.89,1.8-10.15h11l1.14-6.5h-11l1.37-7.75H493l1.12-6.35h-20.3a44.49,44.49,0,0,0,6.43-6.65h15.64L497,49H484.68a80.07,80.07,0,0,0,4.56-8.4l.16-.36L481,39.58l-.11.22a139.14,139.14,0,0,1-7.26,12.75,92.58,92.58,0,0,1-7.34,9.93l-.12.14,1.05,4,.33-.18c1.16-.66,2.36-1.42,3.56-2.27l-.75,4.24h5.93l-1.36,7.75h-9l-1.15,6.5h9l-2.06,11.65a3.59,3.59,0,0,1-.86,2.15,14.07,14.07,0,0,1-3.12,2l-.28.12L469.1,105l.08.22h0l0,0,.06.16h0a1.37,1.37,0,0,0,1.17.61,1.67,1.67,0,0,0,.7-.16c.22-.13.43-.27.65-.42,3.61-2.35,7.41-5.26,11.09-8.07C484.79,95.89,486.59,94.52,488.31,93.25Z"/>
            <path class="cls-1"
                  d="M588.24,63.22l.16.18,6.34-4.93-.17-.23A29.56,29.56,0,0,0,580.94,48l-.22-.09-2.82,3.86.14.16C581.51,55.72,584.94,59.52,588.24,63.22Z"/>
            <path class="cls-1"
                  d="M590.8,75l-.15-.22a33.18,33.18,0,0,0-5.74-6.36A27.43,27.43,0,0,0,577.39,64l-.22-.09-2.74,3.84L584.5,80.09Z"/>
            <path class="cls-1"
                  d="M568.19,84.41l2.88-3.09-.12-.18c-2.23-3.29-4.48-6.69-6.71-10.12l-.14-.21-1.63,1,.74-4.22h9.16l1.19-6.73H564.4L566,51.59A77.23,77.23,0,0,0,575.9,49l.27-.09-.49-6.41-.32.1a217.45,217.45,0,0,1-26.68,6.19l-.27.05-.57,4.67h.27c.56,0,1.13,0,1.7,0a56.56,56.56,0,0,0,7.4-.5l-1.38,7.85h-9.68L545,67.6h9.54a140.23,140.23,0,0,1-8.32,13,107.87,107.87,0,0,1-8.12,10.16l-.13.14,1.24,4.24.33-.19a35.88,35.88,0,0,0,6.63-5,56,56,0,0,0,5.77-6.81l-4.32,24.5h4.3A5.92,5.92,0,0,0,555,106.5a5.72,5.72,0,0,0,1.92-3.31l4.06-23a17.37,17.37,0,0,0,7,4.21Z"/>
            <path class="cls-1"
                  d="M601.35,81.29l7.18-40.73h-9.17L592,82.32l-24.47,2.51-.58,7,23.82-2.51-3.19,18.14h4.58a5.55,5.55,0,0,0,3.76-1.53,6.49,6.49,0,0,0,1.67-3.28l2.52-14.28,9.13-1,.5-7Z"/>
            <path class="cls-1"
                  d="M637.68,77.91a43.66,43.66,0,0,0,7.63-4l.18-.13-1-5.43-5.44,1.76,1.64-9.36h6.43l1.34-7.6h-6.42l2.2-12.48h-9.18l-2.21,12.48h-7.36l-1.34,7.6h7.36l-2.2,12.5-11,3.57,1.52,7.65.29-.09c2.69-.83,5.28-1.69,7.72-2.55L625.2,96.67a3.77,3.77,0,0,1-3.52,3h-3.95l-.48,2.73,0,.07a8.16,8.16,0,0,0,.67,1.24,7.06,7.06,0,0,0,6,3.06,10.7,10.7,0,0,0,8.81-5.24,10.18,10.18,0,0,0,1.38-3.6Z"/>
            <path class="cls-1"
                  d="M683,102.31a60.81,60.81,0,0,1-8-3.74A35.83,35.83,0,0,1,667.61,93a57,57,0,0,0,8.47-8.18,92.85,92.85,0,0,0,8.19-11.93l0,0L685.5,66h-14L673,57.11h17.21l1.22-7h-17.2l1.75-10h-9.31l-1.76,10H650.48l-1.23,7h14.47L662.15,66h-14.4l-1.21,6.87h27.58a47.08,47.08,0,0,1-11.24,14.25,35.8,35.8,0,0,1-2.83-5.38c-.12-.26-.23-.55-.34-.82a58.26,58.26,0,0,1-1.93-5.59l0-.17h-9.84l.12.42a49.86,49.86,0,0,0,3.08,8.45,47.52,47.52,0,0,0,4.82,8.14,81.48,81.48,0,0,1-9,4.87c-4.4,2-8.88,3.79-13.34,5.39l-.28.11.82,5.2.29-.09c4.71-1.38,9.47-2.94,14.14-4.66a95.87,95.87,0,0,0,12.23-5.6,49.53,49.53,0,0,0,9.49,6.34,81.21,81.21,0,0,0,11.43,4.5l.36.12,1.06-6Z"/>
        </g>
    </g>
</svg>