<svg xmlns="http://www.w3.org/2000/svg" viewBox="0 0 334.34 108.39">
    <defs>
        <style>.cls-1{fill:#fff;}.cls-2{fill:#fdd000;}</style>
    </defs>
    <title>资源 3</title>
    <g id="图层_2" data-name="图层 2">
        <g id="图层_1-2" data-name="图层 1">
            <path class="cls-1"
                  d="M296.14,88.44l0-.14c1.94-11,11.39-20.09,22.62-20.09,12.89,0,17,10,15.1,21-.15.86-.4,1.87-.65,2.88H306.38c.2,5,3.2,7.56,8.1,7.56,3.67,0,6.54-1.15,10.06-4l5.28,5.54a23.17,23.17,0,0,1-17,7.21C301.19,108.39,294.06,100.25,296.14,88.44Zm27.79-3.24c.22-4.9-2.08-8.21-6.69-8.21s-8.06,3.24-9.8,8.21Z"/>
            <polygon class="cls-1" points="219.53 107.52 208.44 107.52 215.24 68.92 226.33 68.92 219.53 107.52"/>
            <polygon class="cls-1" points="227.08 64.68 215.99 64.68 217.71 54.96 228.79 54.96 227.08 64.68"/>
            <path class="cls-1" d="M257.38,86.49a3.48,3.48,0,0,1-.1.44l.16-.88C257.42,86.2,257.41,86.34,257.38,86.49Z"/>
            <path class="cls-1" d="M281.28,86.49a.87.87,0,0,1,0,.22l.08-.44A1.66,1.66,0,0,1,281.28,86.49Z"/>
            <polygon class="cls-1"
                     points="210.27 57.12 168.51 57.12 166.71 67.34 182.04 67.34 174.94 107.59 186.03 107.59 193.13 67.34 208.47 67.34 210.27 57.12"/>
            <polygon class="cls-1"
                     points="34.07 96.43 13.04 96.43 19.98 57.12 8.89 57.12 1.96 96.43 1.96 96.43 0 107.52 0 107.52 0 107.52 11.09 107.52 11.09 107.52 32.12 107.52 34.07 96.43"/>
            <polygon class="cls-1" points="50.77 107.52 39.68 107.52 46.49 68.92 57.58 68.92 50.77 107.52"/>
            <polygon class="cls-1" points="58.32 64.68 47.23 64.68 48.95 54.96 60.04 54.96 58.32 64.68"/>
            <polygon class="cls-1"
                     points="129.15 84.12 146.52 68.92 133.41 68.92 118.29 82.81 123.2 54.96 123.06 54.96 112.11 54.96 102.85 107.52 113.79 107.52 113.94 107.52 116.03 95.63 120.39 91.75 127.69 107.52 140.22 107.52 129.15 84.12"/>
            <path class="cls-1"
                  d="M99.55,83.67l-4.21,23.86H84.25l3.69-20.92A5.38,5.38,0,0,0,82.52,80H75.93l-4.85,27.51H60l6.81-38.6H87.41a14.13,14.13,0,0,1,3.57.45A11.7,11.7,0,0,1,99.74,80,14.65,14.65,0,0,1,99.55,83.67Z"/>
            <path class="cls-1"
                  d="M291.49,83.72l-4.21,23.88H276.19l3.68-20.89a1.74,1.74,0,0,0,.05-.22,1.66,1.66,0,0,0,0-.22,5.21,5.21,0,0,0-5.31-6.2h-6.42l-4.85,27.53H252.28l3.64-20.67c0-.15.07-.29.1-.44s0-.29.06-.44a5.21,5.21,0,0,0-5.35-6h-6.42l-4.85,27.53H228.38L235.19,69h44.16a14.19,14.19,0,0,1,3.57.45,11.7,11.7,0,0,1,8.76,10.64A14.68,14.68,0,0,1,291.49,83.72Z"/>
            <path class="cls-2"
                  d="M167.17,15.3a299,299,0,0,1,131,30,211.93,211.93,0,0,0-261.93,0A299,299,0,0,1,167.17,15.3Z"/>
        </g>
    </g>
</svg>